<svg id="SvgjsSvg1001" width="256" height="256" xmlns="http://www.w3.org/2000/svg" version="1.1" xmlns:xlink="http://www.w3.org/1999/xlink" xmlns:svgjs="http://svgjs.com/svgjs"><defs id="SvgjsDefs1002"></defs><g id="SvgjsG1008"><svg xmlns="http://www.w3.org/2000/svg" enable-background="new 0 0 431.38 497.431" viewBox="0 0 431.38 497.431" width="256" height="256"><path fill="#d14b62" d="M423.451,0.01c-14.407,0.972-27.525,7.197-38.99,18.503c-1.573,1.551-1.591,4.084-0.04,5.657
		c0.783,0.794,1.815,1.191,2.848,1.191c1.015,0,2.029-0.383,2.809-1.152c10.062-9.922,21.471-15.378,33.911-16.218
		c2.204-0.148,3.871-2.056,3.722-4.26C427.563,1.528,425.653-0.145,423.451,0.01z" class="colord14b62 svgShape"></path><path fill="#655f68" d="M395.7 125.081l-37.24-13.18c-45.816 50.712-7.208 86.839 19.56 81.26 10.26-21.77 17.4-42.85 17.92-56.8C396.08 132.661 396 128.891 395.7 125.081zM307.65 75.361c-21.815 50.966-89.297 67.462-106.26 29.25 11.31-21.24 23.92-39.58 34.79-48.34 12.69-10.24 28.98-17.82 45.97-21.74C305.197 35.708 316.88 48.814 307.65 75.361z" class="color655f68 svgShape"></path><path fill="#d6eae8" d="M409.25 397.811c-31.955 11.716-61.913 16.686-89.17 12.53l-1.387-36.22h13.327c19.466-19.535 44.877-20.639 74.32-9.24C407.99 376.191 408.84 387.721 409.25 397.811zM396.86 329.111c-18.739 18.826-36.842 25.997-53.76 11.43-5.435-19.325-1.398-36.291 16.43-49.82 11.01 6.88 23.66 16.93 33 30.62C394.12 323.661 395.56 326.271 396.86 329.111zM104.77 242.771c-27.317 26.856-21.801 54.393-4.19 82.18l24.23 1.79c15.64-16.991 25.99-38.52 29.67-65.77v-.07L104.77 242.771z" class="colord6eae8 svgShape"></path><path fill="#d6eae8" d="M75.56,242.761c10.128,23.599,5.724,50.981-4.89,79.98l-27.28-2.02
		c-21.74-30.78-24.075-58.692,4.2-82.08v-0.01l12.331-17.263c2.47,6.3,9.26,12.291,9.26,12.291L75.56,242.761z" class="colord6eae8 svgShape"></path><path fill="#e7f2f1" d="M343.09 340.541c-8.997-8.685-19.257-11.277-30.98-6.83l-39.79 6.53-14.55 13.8 4.63 11.06c18.809 25.172 42.967 22.631 68.55 12.28l1.07-3.26c11.597-9.658 14.765-20.953 11.08-33.58H343.09zM155.7 392.621h-.01c-8.352-24.421-23.658-29.177-44.25-18.99h-.01c-4.52 18.95-8.32 38.84-11.53 59.5 23.559 30.333 52.831 37.564 86.3 27.83L155.7 392.621zM229.08 311.231c-27.601-19.684-54.384-36.032-84.38-32.47-6.14 12.15-11.66 25.09-16.64 38.76 8.587 17.401 24.909 24.769 49.78 21.12l64.99-15.6C242.406 314.482 238.226 310.097 229.08 311.231z" class="colore7f2f1 svgShape"></path><path fill="#5d5560" d="M47.59 238.631v.01l-4.2 82.08L0 317.521v-58.7C9.311 231.806 26.498 229.173 47.59 238.631zM104.77 242.761v.01l-4.19 82.18-29.91-2.21 4.89-79.98c8.54-19.678 18.513-15.714 29.2 0L104.77 242.761zM409.25 397.811c.72 17.75.08 31.08.08 31.08l-28.92 5.22-44.651 11.587-15.189 7.358-8.491-18.434-3.285-14.61 11.285-9.67L409.25 397.811zM406.34 364.881l-74.32 9.24 11.08-33.58 53.76-11.43C401.47 339.081 404.44 351.841 406.34 364.881z" class="color5d5560 svgShape"></path><path fill="#fec4b9" d="M375.51 211.271c12.41 6.22 16.13 23.94 8.29 39.57-7.83 15.63-24.25 23.25-36.67 17.02-4.07-2.04-7.21-5.32-9.31-9.36-10.835-25.488-3.711-45.574 32.03-49.09C371.79 209.751 373.69 210.361 375.51 211.271zM335.56 442.211h-.01l-23.47-7.59-31.59-10.22-76.4 42.66c-.159 11.358 13.792 21.191 33.79 30.37h142.53v-63.32L335.56 442.211z" class="colorfec4b9 svgShape"></path><path fill="#e7f2f1" d="M358.46,111.901l-50.8-36.54h-0.01c-57.4-17.01-106.26,29.25-106.26,29.25
		c-0.67,1.25-1.33,2.52-1.99,3.79c-127.987,51.426-71.837,100.667-10.84,148.3c4.54,7.44,9.76,14.18,15.53,19.79
		c43.967,49.574,105.809,50.25,133.73-17.99c10.87-13.11,22.25-30.77,32.03-49.09c2.88-5.39,5.62-10.84,8.17-16.25
		C378.02,193.161,383.33,147.881,358.46,111.901z" class="colore7f2f1 svgShape"></path><path fill="#655f68" d="M359.53,290.721l-16.43,49.82h-0.01c-10.47-2.19-20.8-4.47-30.98-6.83
		c-4.668-26.659,1.969-45.558,23.43-54.95h0.01C335.55,278.761,346.37,282.481,359.53,290.721z" class="color655f68 svgShape"></path><path fill="#e15c63" d="M317.3,277.571c-29.08,16.64-70.84,23.72-97.34,10.44c-5.64-2.83-10.96-6.77-15.87-11.52
		c-0.463,14.468,7.105,26.299,24.99,34.74c4.25,4.19,8.84,8.13,13.75,11.81l29.49,17.2c7.98,3.59,16.54,6.73,25.67,9.43
		c5.3-5.12,9.99-10.44,14.12-15.96c12.51-16.69,19.92-35.14,23.43-54.95c1.18-6.61,1.93-13.37,2.28-20.26
		C330.54,267.291,323.49,274.031,317.3,277.571z" class="colore15c63 svgShape"></path><path fill="#655f68" d="M262.4,365.101c-23.759-2.198-22.716,5.784-10.84,14.6l9.06,29.35l19.87,15.35l31.59,10.22
		l0.48-1.49l7.52-22.79l10.87-32.96C307.92,374.691,285.07,370.551,262.4,365.101z" class="color655f68 svgShape"></path><path fill="#543927" d="M322.46,177.891c5.44,2.72,7.63,9.33,4.91,14.77c-2.72,5.43-9.33,7.62-14.77,4.9
		c-5.43-2.72-7.62-9.33-4.9-14.76C310.42,177.361,317.03,175.171,322.46,177.891z" class="color543927 svgShape"></path><path fill="#b8d3cf" d="M288.87,448.541c2.5,8.1-2.05,16.7-10.15,19.2l-21.46,6.62c-8.1,2.5-16.7-2.05-19.2-10.15
		s2.05-16.7,10.15-19.2c3.111-12.68,10.814-13.464,21.46-6.62C277.77,435.891,286.37,440.441,288.87,448.541z" class="colorb8d3cf svgShape"></path><path fill="#c3ddda" d="M273.41,181.401c6.94,3.47,9.57,13.12,7.45,24.02l-31.16-15.63
		C257.16,181.581,266.47,177.921,273.41,181.401z" class="colorc3ddda svgShape"></path><path fill="#e15c63" d="M249.7,189.791l31.16,15.63c-0.76,3.92-2.13,7.99-4.14,12c-7.61,15.17-21.42,23.63-30.85,18.9
		c-9.43-4.73-10.91-20.86-3.31-36.02C244.57,196.291,247.02,192.741,249.7,189.791z" class="colore15c63 svgShape"></path><path fill="#c3ddda" d="M272.33,336.811c-0.42-3.91-2.27-7.35-4.99-9.83c-2.73-2.47-6.34-3.99-10.27-4.03
		c-4.15-0.05-9.01-0.04-14.24,0.09c-18.32,0.47-41.2,2.48-54.31,8.96c-3.97,1.96-7.52,4.17-10.68,6.64
		c-30.419,2.569-36.797,21.233-22.14,53.98c-0.02,0.87-0.03,1.75-0.03,2.64c0,28.52,11.98,54.34,30.53,65.7
		c2.547,9.3,8.671,10.99,17.89,6.1c17.02,2.3,33.97-2.85,33.97-2.85c12.28-2.057,14.025-11.804,10.15-19.2l-9.05-29.34l-9.05-29.35
		l27.66-32.28l1.47-0.22c7.05-1.07,12.31-6.76,13.08-13.58C272.45,339.121,272.46,337.971,272.33,336.811z" class="colorc3ddda svgShape"></path><path fill="#b8d3cf" d="M270.76,389.851c0.47,1.51,0.69,3.03,0.69,4.53c0,6.56-4.24,12.64-10.83,14.67
		c-4.186,9.046-10.916,12.228-21.46,6.62c-8.1,2.5-16.7-2.05-19.2-10.15c-0.47-1.51-0.69-3.03-0.69-4.53
		c0-6.56,4.24-12.64,10.84-14.67c4.156-11.515,11.455-13.26,21.45-6.62C259.67,377.201,268.26,381.751,270.76,389.851z" class="colorb8d3cf svgShape"></path><path fill="#acccc6" d="M261.71,360.501c0.47,1.53,0.69,3.08,0.69,4.6c-0.03,6.54-4.26,12.58-10.84,14.6l-21.45,6.62
		c-8.11,2.5-16.7-2.04-19.2-10.15c-2.5-8.1,2.04-16.7,10.15-19.2l21.45-6.61c5.57-1.72,11.36-0.11,15.26,3.68
		C259.55,355.771,260.93,357.961,261.71,360.501z" class="coloracccc6 svgShape"></path><path fill="#543927" d="M246.86,139.991c5.44,2.72,7.63,9.33,4.91,14.76c-2.72,5.44-9.34,7.63-14.77,4.91
		s-7.62-9.33-4.9-14.77C234.82,139.461,241.43,137.271,246.86,139.991z" class="color543927 svgShape"></path><path fill="#655f68" d="M237.88,497.431H91.92c2.14-22.11,4.76-43.6,7.97-64.3h0.01l86.3,27.83
		c0.97,0.59,1.95,1.14,2.95,1.65c4.68,2.39,9.81,3.76,14.94,4.45L237.88,497.431z" class="color655f68 svgShape"></path><path fill="#c3ddda" d="M224.72,233.321c-1.4-7.23-7.73-12.29-14.87-12.29c-0.75,0-1.5,0.06-2.26,0.17l-1.79,0.27
		c-42.726-30.22-10.888-97.588-51.32-99.46c0,0-27.91,2.17-42.26,13.77c-5.65,4.56-9.83,11.25-12.84,17.69H65.66
		c0,0-1.66,2.61-3.7,7.36c-26.474,24.856-28.69,48.958-1,72.13c2.47,6.3,4.7,9.8,4.7,9.8h9.9h29.2h0.01v0.01
		c6.36,7.13,15.81,14.02,29.52,16.79c6.02,1.22,12.92,1.57,20.19,1.34c13.276,10.143,24.612,8.597,34.08-4.2
		c9.59-1.86,18.41-4.03,25.21-5.85C221.46,248.791,226.23,241.131,224.72,233.321z" class="colorc3ddda svgShape"></path><path fill="#655f68" d="M204.09,276.491c6.43,13.05,14.75,24.64,24.99,34.74c-30.28-9.58-58.55-20.32-84.38-32.47
		c3.1-6.14,6.36-12.07,9.78-17.79v-0.07c11.13-0.35,23.11-2.07,34.08-4.2C193.1,264.141,198.32,270.881,204.09,276.491z" class="color655f68 svgShape"></path><path fill="#acccc6" d="M205.8,221.471c-2.61,4.78-7.68,8.02-13.51,8.02h-22.45c-8.48,0-15.36-6.87-15.36-15.35
		c0-8.48,6.88-15.36,15.36-15.36c7.483-8.035,14.967-8.035,22.45,0c8.48,0,15.36,6.88,15.36,15.36
		C207.65,216.791,206.98,219.291,205.8,221.471z" class="coloracccc6 svgShape"></path><path fill="#b8d3cf" d="M199.4,108.401c4.9,2.56,8.25,7.7,8.25,13.61c0,8.48-6.88,15.35-15.36,15.35
		c-7.483,9.389-14.967,9.389-22.45,0c-8.48,0-15.36-6.87-15.36-15.35s6.88-15.36,15.36-15.36h22.45
		C194.86,106.651,197.27,107.281,199.4,108.401z" class="colorb8d3cf svgShape"></path><path fill="#acccc6" d="M203.15,141.861c2.78,2.78,4.5,6.62,4.5,10.86c0,8.48-6.88,15.35-15.36,15.35
		c-7.904,7.738-15.444,8.783-22.45,0c-4.24,0-8.08-1.72-10.86-4.5c-2.78-2.77-4.5-6.61-4.5-10.85c0-8.48,6.88-15.36,15.36-15.36
		h22.45C196.53,137.361,200.37,139.081,203.15,141.861z" class="coloracccc6 svgShape"></path><path fill="#b8d3cf" d="M203.15,172.571c2.78,2.78,4.5,6.62,4.5,10.86c0,8.48-6.88,15.35-15.36,15.35h-22.45
		c-4.24,0-8.08-1.72-10.86-4.49c-2.78-2.78-4.5-6.62-4.5-10.86c0-8.48,6.88-15.36,15.36-15.36h22.45
		C196.53,168.071,200.37,169.791,203.15,172.571z" class="colorb8d3cf svgShape"></path><path fill="#655f68" d="M177.84,338.641c-15.54,12.09-21.73,30.2-22.14,53.98h-0.01l-44.25-18.99h-0.01
		c3.91-16.36,8.35-32.02,13.38-46.89c1.06-3.11,2.14-6.18,3.25-9.22C144.58,325.181,161.16,332.231,177.84,338.641z" class="color655f68 svgShape"></path><path fill="#fec4b9" d="M0,176.231l61.96-15.4c-3.26,7.59-7.49,20.66-7.49,37.28c0,14.97,3.43,27.05,6.49,34.85l-13.37,5.67
		L0,258.821V176.231z" class="colorfec4b9 svgShape"></path><path fill="#e15c63" d="M361.64,113.531c-1.06-0.52-2.12-1.07-3.18-1.63c-7.86-4.15-15.96-9.14-24.06-14.8
		c-9.2-6.42-17.59-13.13-24.82-19.91c-0.65-0.61-1.29-1.22-1.92-1.83h-0.01c-14.54-14.05-24.03-28.31-25.5-40.83
		c-0.73-6.22,0.51-12.02,4.1-17.15c14.6-20.91,62.48-22.93,101.02,3.98c38.55,26.91,53.15,72.56,38.55,93.47
		c-6.28,8.99-16.94,11.95-30.12,10.25C385.56,123.781,373.92,119.721,361.64,113.531z" class="colore15c63 svgShape"></path><path fill="#acccc6" d="M280.49,424.401c-0.28,6.3-4.46,12.03-10.82,13.99l-21.46,6.62c-8.1,2.5-16.7-2.04-19.2-10.14
		c-0.46-1.51-0.69-3.03-0.69-4.53c0-6.56,4.25-12.63,10.84-14.67l21.46-6.62c8.1-2.5,16.69,2.04,19.19,10.15
		c0.47,1.51,0.69,3.03,0.69,4.53C280.5,423.961,280.5,424.181,280.49,424.401z" class="coloracccc6 svgShape"></path><path fill="#d6eae8" d="M229.08,311.231c4.25,4.19,8.84,8.13,13.75,11.81c-8.42,0.21-17.79,0.75-26.74,1.91
		c-12.55-8.27-21.43-18.19-27.69-27.79C201.5,302.121,215.08,306.801,229.08,311.231z" class="colord6eae8 svgShape"></path><path fill="#5d5560" d="M204.09,276.491c6.43,13.05,14.75,24.64,24.99,34.74c-14-4.43-27.58-9.11-40.68-14.07
		c-12.83-19.66-14.69-37.98-14.69-37.98c5.04-0.69,10.05-1.54,14.85-2.48C193.1,264.141,198.32,270.881,204.09,276.491z" class="color5d5560 svgShape"></path><path fill="#d14b62" d="M355.439 66.961c-1.811-1.265-4.305-.822-5.569.99l-12.296 17.614c-1.265 1.812-.821 4.305.99 5.569.697.487 1.496.721 2.286.721 1.263 0 2.505-.597 3.283-1.711L356.43 72.53C357.694 70.719 357.251 68.225 355.439 66.961zM319.444 33.813c-1.943-1.049-4.37-.328-5.422 1.614-4.654 8.601-7.551 17.285-8.609 25.811-.272 2.192 1.285 4.19 3.477 4.462.167.021.333.031.498.031 1.99 0 3.713-1.483 3.965-3.508.935-7.533 3.527-15.267 7.706-22.988C322.109 37.292 321.387 34.864 319.444 33.813zM393.31 89.675c-5.196 5.894-10.848 10.607-16.796 14.007-1.918 1.096-2.584 3.54-1.488 5.458.738 1.292 2.088 2.016 3.477 2.016.673 0 1.355-.17 1.981-.528 6.714-3.837 13.048-9.107 18.828-15.662 1.461-1.657 1.302-4.185-.355-5.646C397.297 87.859 394.77 88.018 393.31 89.675z" class="colord14b62 svgShape"></path><path fill="#655f68" d="M261.643 110.505c-8.374-4.198-17.145-1.788-17.514-1.682-2.118.6-3.342 2.795-2.753 4.916.589 2.12 2.79 3.363 4.915 2.787.062-.018 6.229-1.645 11.768 1.132 5.545 2.776 7.929 8.691 7.944 8.731.609 1.594 2.127 2.574 3.738 2.573.474 0 .957-.085 1.427-.264 2.063-.789 3.097-3.101 2.309-5.165C273.34 123.174 270.025 114.702 261.643 110.505zM337.243 148.405c-8.372-4.197-17.144-1.787-17.514-1.682-2.117.6-3.342 2.795-2.753 4.916.589 2.121 2.79 3.365 4.915 2.787.061-.018 6.229-1.646 11.769 1.132 5.515 2.761 7.902 8.636 7.95 8.757.613 1.584 2.126 2.558 3.731 2.558.474 0 .956-.085 1.425-.264 2.064-.787 3.099-3.099 2.312-5.163C348.94 161.086 345.626 152.603 337.243 148.405z" class="color655f68 svgShape"></path><path fill="#b8d3cf" d="M92.128 176.674c.26.051.52.076.775.076 1.872 0 3.545-1.322 3.921-3.228.008-.04.799-4.007 2.605-9.377.704-2.094-.422-4.362-2.517-5.066-2.093-.704-4.362.422-5.066 2.517-1.984 5.901-2.837 10.205-2.873 10.386C88.55 174.149 89.962 176.248 92.128 176.674zM148.163 210.141H138.07c-2.209 0-4 1.791-4 4s1.791 4 4 4h10.093c2.209 0 4-1.791 4-4S150.372 210.141 148.163 210.141zM96.762 221c-.574-2.128-2.76-3.393-4.894-2.824-2.134.57-3.403 2.762-2.833 4.896.054.202 1.361 5.02 4.869 11.284.733 1.309 2.093 2.046 3.494 2.046.662 0 1.333-.164 1.951-.51 1.927-1.08 2.615-3.517 1.536-5.445C97.901 225.12 96.773 221.04 96.762 221z" class="colorb8d3cf svgShape"></path></svg></g></svg>