<svg width="256" height="256" xmlns="http://www.w3.org/2000/svg" version="1.1" xmlns:xlink="http://www.w3.org/1999/xlink" xmlns:svgjs="http://svgjs.com/svgjs"><defs></defs><g><svg xmlns="http://www.w3.org/2000/svg" viewBox="0 0 66 66" width="256" height="256"><path d="m31.424 26.196.589-.23c.341 1.006.607 2.033.837 3.068l-.226.111a.25.25 0 1 0 .22.448l.111-.055c.149.733.27 1.47.364 2.212l-.436.101a.25.25 0 1 0 .113.487l.387-.09c.122 1.116.187 2.235.182 3.358l-1.006-.063a.246.246 0 0 0-.265.234.25.25 0 0 0 .234.265l1.021.064a30.085 30.085 0 0 1-.09 1.875h-.509a.25.25 0 0 0 0 .5h.451a29.01 29.01 0 0 1-.639 3.869.25.25 0 0 0 .487.117c.319-1.318.523-2.658.658-4.004.115-.023.208-.111.208-.232 0-.102-.069-.172-.157-.211a30.31 30.31 0 0 0 .09-1.882l.106.007h.016a.25.25 0 0 0 .016-.499l-.12-.007a30.122 30.122 0 0 0-.191-3.502l.852-.198a.25.25 0 1 0-.113-.487l-.803.186a30.41 30.41 0 0 0-.39-2.326l.649-.319a.25.25 0 0 0-.22-.449l-.534.263a30.103 30.103 0 0 0-.832-3.023l.472-.185a.25.25 0 1 0-.182-.466l-.469.183a29.354 29.354 0 0 0-.708-1.828.252.252 0 0 0-.329-.129.25.25 0 0 0-.129.329c.259.594.483 1.201.701 1.809l-.595.232a.25.25 0 0 0-.142.324.244.244 0 0 0 .321.143z" fill="#8F7EE7" class="color000 svgShape"></path><path d="M17.141 56.058c11.394 16.627 35.475 9.348 37.045-16.534.443-7.299-1.402-25.141-6.1-31.598-6.669-9.167-21.077-9.4-29.282.55-8.24 9.992-9.856 35.627-1.663 47.582zm14.149-.763 1.244 1.244-1.555 1.555-1.244-1.244 1.555-1.555zm8.043 7.336-.654-.654 1.889-1.889.977.977a.25.25 0 1 0 .354-.354l-.977-.977 1.65-1.65 1.602 1.602a19.78 19.78 0 0 1-4.841 2.945zm-5.921 1.357 1.428-1.428.004.002a.249.249 0 0 0 .249-.254l1.605-1.605 1.275 1.275-1.617 1.617c-.977.221-1.961.353-2.944.393zm4.913-1.658.503.503c-.503.195-1.01.368-1.522.516l1.019-1.019zm2.243-2.949-1.275-1.275 1.65-1.65 1.275 1.275-1.65 1.65zm-.354.353-1.889 1.889-1.275-1.275 1.889-1.889 1.275 1.275zm-3.517.261-1.367-1.367 1.889-1.889 1.367 1.367-1.889 1.889zm-.353.354-1.555 1.555-1.367-1.367 1.555-1.555 1.367 1.367zm-3.276-.166-1.736-1.736 1.555-1.555 1.736 1.736-1.555 1.555zm-6.133 2.661.561-.561.866.866a.25.25 0 1 0 .354-.354l-.866-.866 1.269-1.269 1.736 1.736-1.26 1.26c-.9-.192-1.789-.463-2.66-.812zm2.536-2.536 1.507-1.507 1.736 1.736-1.507 1.507-1.736-1.736zm1.154-1.861-1.507 1.507-1.244-1.244 1.507-1.507 1.244 1.244zm-1.861 1.861-1.269 1.268-1.244-1.244 1.269-1.269 1.244 1.245zm-1.622 1.622-.701.701a18.468 18.468 0 0 1-1.661-.827l1.118-1.118 1.244 1.244zm-2.232-.963c-.011-.04-.016-.083-.047-.114l-1.686-1.686.601-.601 1.766 1.766-.634.635zm-.4.239c.031.032.074.036.114.047l-.291.291a19.478 19.478 0 0 1-2.085-1.447l.577-.577 1.685 1.686zm5.677 2.565 1.02-1.02 1.138 1.138a.25.25 0 1 0 .354-.354l-1.138-1.138 1.508-1.507 1.367 1.367-1.749 1.748a15.128 15.128 0 0 1-.976-.036 15.2 15.2 0 0 1-1.524-.198zm14.368-4.411-1.63-1.63 1.794-1.794 1.652 1.652a20.765 20.765 0 0 1-1.816 1.772zm2.149-2.145-1.635-1.635a.249.249 0 0 0-.004-.343.247.247 0 0 0-.343-.004l-2.783-2.783 1.408-1.408 1.459 1.459-.99.99a.25.25 0 1 0 .354.353l.99-.99 2.784 2.784c-.196.273-.392.545-.602.812-.206.262-.421.515-.638.765zm-5.119-5.119-1.029-1.029 1.408-1.408 1.029 1.029-1.408 1.408zm8.986-5.007a.25.25 0 0 0-.354 0l-.541.541-.568-.568 1.696-1.696 1.226 1.226c.011.011.028.008.04.017-.225.86-.496 1.732-.808 2.607l-1.232-1.232.541-.541a.25.25 0 0 0 0-.354zm.377-6.768a.25.25 0 0 0-.354 0l-.349.349-1.06-1.06 1.278-1.278.476.476-.487.487a.25.25 0 1 0 .354.354l.487-.487 1.776 1.776a37.854 37.854 0 0 1-.289 2.267l-1.167-1.167.668-.668a.25.25 0 1 0-.354-.354l-.668.668-.66-.66.349-.349a.25.25 0 0 0 0-.354zm1.533-13.592c.137.965.262 1.935.37 2.912L51.21 28l1.271-1.271zm.456 3.704c.096.95.168 1.905.225 2.863l-.684-.684c.074-.098.077-.234-.013-.323-.089-.089-.225-.086-.323-.013l-.915-.915 1.319-1.319.391.391zm.265 3.611c.018.393.035.787.045 1.181-.005-.006-.003-.015-.008-.021a.25.25 0 0 0-.354 0l-.456.456-1.49-1.49 1.194-1.194 1.069 1.068zm.037 1.514c.008-.008.006-.021.012-.03.007.321.011.643.012.965l-.48-.48.456-.455zm.029 1.647a46.068 46.068 0 0 1-.079 2.258c-.016.269-.037.546-.06.828l-1.482-1.482.975-.975a.25.25 0 1 0-.354-.354l-.975.975-.476-.476 1.612-1.612.839.838zm-1.062 8.855-1.048-1.048 1.046-1.046a.25.25 0 1 0-.354-.354l-1.046 1.046-.906-.906 1.362-1.362 1.417 1.418a35.687 35.687 0 0 1-.471 2.252zm-1.3-4.023-1.362 1.362-.66-.66 1.362-1.361.66.659zm-1.715 1.716-.459.459a.25.25 0 1 0 .353.354l.459-.459.906.906-1.696 1.696-1.92-1.92 1.696-1.696.661.66zm1.883 5.981c-.35.923-.756 1.845-1.221 2.757l-.629-.629 1.526-1.526a.25.25 0 1 0-.354-.354l-1.526 1.526-1.183-1.183 1.989-1.989 1.398 1.398zm-2.557 2.128-1.137 1.137a.25.25 0 1 0 .353.354l1.137-1.137.74.74a24.359 24.359 0 0 1-1.375 2.267L45.513 52.5l1.821-1.821 1.183 1.183zm-3.357.285-1.46-1.459 1.821-1.821 1.459 1.459-1.82 1.821zM19.576 9.111C27.365-.334 41-.114 47.278 8.514c2.859 3.93 3.73 9.061 4.695 14.895l-.636-.636.142-.142a.25.25 0 1 0-.354-.354l-.268.267c-.024.012-.052.01-.072.03-.02.02-.018.048-.03.072l-.488.487a.25.25 0 1 0 .353.354l.362-.362 1.123 1.123c.088.545.174 1.09.256 1.64l-1.026-1.027.423-.423a.25.25 0 1 0-.354-.353l-.453.453c-.087-.029-.181-.026-.25.043-.069.069-.072.163-.043.25l-.514.514a.25.25 0 1 0 .354.354l.484-.484 1.152 1.152-1.325 1.325a.246.246 0 0 0-.191.067.239.239 0 0 0-.067.191l-.405.405a.25.25 0 1 0 .354.354l.358-.358 1.336 1.337-1.319 1.319-.571-.571a.25.25 0 1 0-.354.354l.571.571-.436.436a.25.25 0 1 0 .354.354l.436-.436.906.906-1.194 1.194-.785-.785a.25.25 0 1 0-.354.354l.785.785-.824.824a.25.25 0 1 0 .354.354l.824-.824 1.49 1.49-1.612 1.612-1.248-1.248a.25.25 0 1 0-.354.354l1.248 1.248-1.278 1.278-.453-.453a.25.25 0 1 0-.354.354l.453.453-.484.484a.25.25 0 1 0 .354.353l.484-.484 1.06 1.06-1.362 1.361-.821-.821a.25.25 0 1 0-.354.354l.821.821-1.696 1.696-.529-.529a.25.25 0 1 0-.354.354l.529.529-.407.406a.25.25 0 1 0 .354.354l.407-.406 1.92 1.92-.468.468a.25.25 0 1 0 .353.354l.468-.468.568.568-1.989 1.989-1.459-1.459 1.43-1.43a.25.25 0 1 0-.354-.354l-1.43 1.43-1.66-1.66a.25.25 0 1 0-.354.354l1.66 1.66-1.821 1.821-1.029-1.029 1.274-1.274a.25.25 0 1 0-.354-.353l-1.274 1.274-.361-.361a.25.25 0 1 0-.354.354l.361.361-1.408 1.408-.555-.554a.25.25 0 1 0-.354.354l.555.554-.764.764a.25.25 0 1 0 .354.354l.764-.764 1.029 1.029-.918.918a.25.25 0 1 0 .354.354l.918-.918 2.78 2.78-1.794 1.794-1.275-1.275 1.197-1.197a.25.25 0 1 0-.354-.354l-1.197 1.197-3.681-3.681a.25.25 0 1 0-.354.354l3.681 3.681-1.65 1.65-1.367-1.367.76-.76a.25.25 0 1 0-.354-.354l-.759.759-2.629-2.629a.25.25 0 1 0-.354.354l2.629 2.629-1.889 1.889-1.736-1.736 1.287-1.287a.25.25 0 1 0-.354-.354l-1.287 1.287-1.351-1.351c-.015-.015-.038-.012-.056-.023-.009-.014-.006-.032-.018-.044a.25.25 0 0 0-.354 0l-1.729 1.729-.707-.707a.25.25 0 1 0-.354.354l.707.707-1.507 1.507-1.614-1.614a.25.25 0 1 0-.354.354l1.614 1.614-1.269 1.269-1.766-1.766 1.362-1.362a.25.25 0 1 0-.354-.354l-1.362 1.362-.544-.544a.25.25 0 1 0-.354.354l.544.544-.601.601-.925-.925a.25.25 0 1 0-.354.354l.925.925-.612.612a21.208 21.208 0 0 1-3.892-4.286C10.02 43.896 11.62 18.76 19.576 9.111z" fill="#6E5DC6" class="color000 svgShape"></path><path d="M39.156 16.976c-3.569-2.589-8.694-1.183-11.397 1.604-2.134 2.2-2.672 4.594-3.242 7.129-.215.955-.437 1.942-.752 2.934-1.192 3.749.889 17.427 4.063 19.261 3.264 1.886 7.468 1.545 9.998-.805 3.507-3.256 4.698-13.641 5.012-18.313.21-3.13.426-8.83-3.682-11.81zm-6.231-.156c.197-.045.394-.083.593-.115l-.354.354-.239-.239zm-2.047.951.674.674-1.012 1.012-.982-.982c-.031-.031-.073-.035-.113-.047.421-.316.88-.596 1.363-.84a.243.243 0 0 0 .07.183zm-4.822 5.893c.177-.606.388-1.199.653-1.778l1.194 1.194-1.216 1.215-.631-.631zm.886-2.253c.203-.387.438-.767.709-1.14l.354.354-.924.924-.139-.138zm-2.022 6.81c.176-.63.333-1.251.471-1.858l.754.754-1.165 1.165-.06-.061zm-.412 5.686.042.042-.036.036-.006-.078zm.278 2.554.221.221-.165.165c-.02-.129-.039-.257-.056-.386zm17.054-7.743c-.279 4.141-1.417 14.606-4.695 17.649-2.182 2.026-5.973 2.316-8.818.671-1.388-.802-2.701-5.222-3.396-9.595.011-.008.026-.005.036-.015l.393-.393.073.073a.25.25 0 1 0 .354-.354l-.073-.073 1.07-1.07a.25.25 0 1 0-.353-.354l-1.07 1.07-.393-.393c-.071-.071-.168-.072-.257-.04a46.66 46.66 0 0 1-.139-1.261l.333-.333.438.438a.25.25 0 1 0 .353-.354l-.438-.438 1.024-1.024a.25.25 0 1 0-.354-.354l-1.024 1.024-.089-.089a.246.246 0 0 0-.335-.008 25.977 25.977 0 0 1-.06-1.977l.029-.029.582.582a.25.25 0 1 0 .354-.354l-.582-.582 1.449-1.448a.25.25 0 1 0-.354-.354l-1.449 1.448-.007-.007c.037-.697.12-1.29.253-1.745.032.014.061.04.096.04a.249.249 0 0 0 .177-.073l.013-.013.454.455a.25.25 0 1 0 .354-.354l-.454-.454 1.199-1.199c.084.022.14.045.235-.049.065-.065.071-.152.049-.235l.369-.369a.25.25 0 1 0-.354-.354l-.335.335-.974-.974c.12-.532.24-1.057.376-1.575l1.593 1.593a.25.25 0 1 0 .353-.354l-.805-.805 1.216-1.215.114.114a.25.25 0 1 0 .354-.354l-.127-.127c.064-.097.067-.224-.018-.31-.086-.086-.213-.082-.31-.018l-.836-.836.924-.924.708.708a.25.25 0 1 0 .353-.354l-.708-.708.907-.907a.25.25 0 1 0-.354-.354l-.907.907-.4-.4c.163-.2.329-.4.518-.596.205-.211.43-.41.664-.602a.237.237 0 0 0 .064.154l.982.982-.258.258a.25.25 0 1 0 .354.354l.258-.258.031.031a.25.25 0 1 0 .354-.353l-.031-.031 1.012-1.012.294.294a.25.25 0 1 0 .354-.354l-.294-.294.194-.194a.25.25 0 1 0-.353-.354l-.194.194-.674-.674c-.011-.011-.028-.008-.04-.017a9.312 9.312 0 0 1 1.173-.434l.447.447a.249.249 0 0 0 .352.352l.146.146a.25.25 0 1 0 .354-.354l-.145-.145.411-.411a.249.249 0 0 0 0-.353l-.006-.003c1.621-.173 3.269.14 4.646 1.139 3.4 2.475 3.523 7.169 3.27 10.94zM16.469 24.002a40.717 40.717 0 0 0-.268 1.832.25.25 0 1 0 .497.058 40.28 40.28 0 0 1 .25-1.713c.389.111.736.16 1.137.122a.251.251 0 0 0 .226-.272c-.013-.138-.126-.233-.272-.226a2.587 2.587 0 0 1-1.018-.116 33.7 33.7 0 0 1 .764-3.317.25.25 0 1 0 .312-.39l-.167-.135c.425-1.417.93-2.752 1.528-3.99l.367.321a.25.25 0 1 0 .329-.376l-.457-.4c.426-.834.893-1.623 1.399-2.37.342.271.734.479 1.157.59a.25.25 0 1 0 .128-.484 2.681 2.681 0 0 1-1.014-.523c.361-.507.741-.995 1.141-1.459.245-.284.498-.558.759-.824l.383.522c.081.11.237.136.35.054a.252.252 0 0 0 .054-.35l-.423-.577a17.328 17.328 0 0 1 2.488-1.994l.364.453a.25.25 0 0 0 .39-.312l-.333-.415a16.547 16.547 0 0 1 2.772-1.375l.394 1.294a.25.25 0 0 0 .479-.145L29.78 6.17a14.417 14.417 0 0 1 3.999-.798l.224 1.211a.25.25 0 1 0 .491-.09l-.209-1.131a12.23 12.23 0 0 1 2.4.197.253.253 0 0 0 .292-.199.25.25 0 0 0-.199-.292 12.81 12.81 0 0 0-2.585-.206l-.093-.505a.248.248 0 0 0-.292-.2.25.25 0 0 0-.201.291l.08.43a14.937 14.937 0 0 0-4.053.814l-.164-.541a.251.251 0 0 0-.312-.167.251.251 0 0 0-.167.312l.171.562c-1.01.385-1.998.871-2.943 1.46l-.612-.762a.25.25 0 0 0-.39.314l.584.726a17.826 17.826 0 0 0-2.472 1.979l-.396-.54a.25.25 0 1 0-.404.296l.436.595c-.288.291-.569.591-.839.904-.391.455-.763.93-1.118 1.424a2.644 2.644 0 0 1-.364-.549.25.25 0 0 0-.451.215c.135.281.324.528.534.757a22.831 22.831 0 0 0-1.42 2.387l-.782-.684a.25.25 0 0 0-.33.376l.868.76a27.203 27.203 0 0 0-1.562 3.99l-.646-.518a.25.25 0 1 0-.312.39l.813.653a34.068 34.068 0 0 0-.811 3.456 2.552 2.552 0 0 1-.543-.378.25.25 0 1 0-.341.366c.239.22.516.39.808.527zM19.964 40.343l-.788.789-1.042-1.042a.25.25 0 1 0-.354.354l1.042 1.042-.611.611-1.093-1.093a.25.25 0 1 0-.354.354l1.093 1.093-1.093 1.093a.25.25 0 1 0 .354.354l1.093-1.093.844.844a.25.25 0 1 0 .354-.354l-.844-.844.611-.612.49.49a.25.25 0 1 0 .354-.354l-.49-.49.788-.789a.25.25 0 1 0-.354-.353zM38.19 10.647l-.306.306a.25.25 0 1 0 .354.353l.306-.306.665.664a.25.25 0 1 0 .354-.353l-.665-.665 1.093-1.093 1.125 1.125a.25.25 0 1 0 .354-.354l-1.125-1.125 1.201-1.201a.25.25 0 1 0-.354-.354L39.99 8.847l-.788-.788a.25.25 0 1 0-.354.354l.788.788-1.093 1.093-.848-.848a.25.25 0 1 0-.354.353l.849.848z" fill="#B8ACF6" class="color000 svgShape"></path></svg></g></svg>