<svg id="SvgjsSvg1001" width="550" height="550" xmlns="http://www.w3.org/2000/svg" version="1.1" xmlns:xlink="http://www.w3.org/1999/xlink" xmlns:svgjs="http://svgjs.com/svgjs"><defs id="SvgjsDefs1002"></defs><g id="SvgjsG1008"><svg xmlns="http://www.w3.org/2000/svg" enable-background="new 0 0 110 110" viewBox="0 0 110 110" width="550" height="550"><path fill="#0e2365" d="M49.0932465,94.1369095c-7.8990936,4.3854065-17.1604977,0.5262527-20.1152363-5.7939453
				c-5.934679,1.300354-13.9448032-6.2740326-13.9228506-16.2382813c0.0107422-4.4345703,1.7011709-8.8789063,4.6376944-12.1933594
				c0.2200413-0.2457886,0.5940437,0.0823708,0.375,0.3320313c-5.9497747,6.7143402-6.0398893,16.9295349-0.0400391,23.7451172
				c2.1985588,2.5025711,5.509306,4.5438156,8.7460938,3.8867188c-1.9933319-4.9043884,1.1885071-8.6717377,3.7138691-7.6289063
				c2.6767197,1.1019516,2.0743866,6.5534134-3.0146503,7.9726563c2.8605251,5.9782486,11.7105541,9.6779633,19.2919941,5.5273438
				c-2.282856-2.9249039-1.4096756-7.1618118,1.2460938-8.5605469c2.5885582-1.3693085,4.9425392,0.5572128,4.390625,3.25
				c-0.4491081,2.1869659-2.9422951,4.3259811-4.8632813,5.4482422c3.8254433,4.1588669,13.1387024,4.1753693,18.015625-1.2324219
				c2.140625-2.3681641,3.1845703-5.7646484,2.7255859-8.8642578c-0.0483093-0.3220444,0.4433899-0.410141,0.4941406-0.0742188
				c0.4814453,3.2441406-0.6103516,6.7978516-2.8486328,9.2734375
				C62.8080788,98.6600647,53.0610123,98.5887375,49.0932465,94.1369095z M51.7377777,85.2414017
				c-3.301609,0-5.1731224,4.9691772-2.53125,8.2568359c1.8107033-1.0406342,4.2849388-3.1130142,4.7050781-5.1630859
				C54.2377014,86.7529221,53.3803406,85.2414017,51.7377777,85.2414017z M29.2660961,87.7580032
				c4.6859188-1.2549286,5.2593555-6.1318893,3.0322285-7.0488281
				C30.2828217,79.8764801,27.3361244,83.1141129,29.2660961,87.7580032z" class="color0e2365 svgShape"></path><path fill="#558dfd" d="M57.408535 32.2142982c-.8685036.4746284-1.6764793 1.0502815-2.4339104 1.6966362-7.6671562-4.7969723-7.4403954-4.8244114-7.9984512-4.9081974.1000786-.0070038 8.621418-.6034966 8.0792618-.5655441 0 0 0 0 0 .0101089.7064209-.0243855 1.1894722.5037594 2.0198135.979641L57.408535 32.2142982zM62.367157 74.2870178c-.2648315.173172-.4028015.4670029-1.0300636.5453339l-.0101089.0101089c-1.5727692.0941238-8.5462379.5114746-8.0994797.4847336.4182854-.1044922.1827393-.0571289 5.4837914-4.2617798 1.1310921.8583984 2.3127251 1.6158295 3.5447845 2.2419662L62.367157 74.2870178zM81.2625504 28.9320984l-5.7867508 4.6354408c-.7271652-.4847336-1.4744873-.9189873-2.2319183-1.3027573-1.1324615-8.535059-.7492981-8.7840538-1.53508-9.7052593l6.9582748-.0403748c.3344498 0 .3351669-.5049534 0-.5049534l-7.4733353.0403748c-.0100479 0-.0201569 0-.0302658.0101089-.2625885-.1615582-.5453262-.2524776-.8483505-.2524776l-11.7856064-.0403748 7.4430161-.5150623c0 0 .0202179 0 .0707016.0101089.0504837-.0202179.1110764-.0202179.1615601-.0202179l12.4622803.0404358c.9291 0 1.7875595.8887234 1.9289017 1.9793797L81.2625504 28.9320984zM86.2413864 83.1944122v.0101089c-.0101089.0101089-.0101089.0201569-.0101089.0201569l-8.2913055.5352783c0 0-.0101089-.0101089-.0202179-.0202179.7776489-.1615524 1.2926559-.9594193 1.1714706-1.939003l-.9896927-8.4428101c1.2826004-.7271652 2.454071-1.6360474 3.5043488-2.6965027l4.9485779 3.1307526.8887177 7.4732819C87.5542526 82.2552109 87.0391922 83.063118 86.2413864 83.1944122zM103.0058289 60.5825691l-4.746521 12.6844368c-.2323151.6160278-.7271652.939209-1.2927094.9695358l-8.2004471.5251083c0 0 0 0 0-.0100479.4948502-.0605927.939209-.3938828 1.1513138-.9594269l4.7364655-12.6743279c.1211853-.3433952.1514511-.7170563.0908585-1.0907173l5.6352997-.6362457c.3182373-.0490036.2690201-.5489349-.060585-.5049553l-5.7060089.6463585H94.603447c-.1717224-.4544716-.4746857-.8584595-.8887177-1.1109352l-6.6654282-4.2214088c-.1190491-1.7876434-.418129-3.5499802-.8583984-5.190937l5.6756744-4.5344772c.2625885-.2221489.4443665-.5251083.5251694-.8786125l7.0693588-.0403748c.3374786-.0241394.3314667-.5049553 0-.5049553l-6.9987183.0403748c.0287857-1.2940216-.305191-.9503288-8.4730759-13.795311-.3433914-.5453892-.8685684-.8685055-1.3735199-.9190502v-.0101089l8.0893707-.5554371c.585762-.0302658 1.2321167.3029594 1.6360474.959425l8.0692062 12.4420681c.6160355.939209.515007 2.1612167-.2019882 2.7267647l-5.6756744 4.5445824c.480011 1.7225494.7620392 3.5955353.8684998 5.1909409l6.6653671 4.2112961C102.9351883 58.4314613 103.3492203 59.6332512 103.0058289 60.5825691z" class="color558dfd svgShape"></path><path fill="#0e2365" d="M65.1733246,83.9796829c-1.0673828,0-2.0185547-0.9667969-2.1650391-2.2001953l-0.9853516-8.3105469
					c-1.109375-0.5732422-2.2207031-1.2744141-3.3066406-2.0869141l-4.8779297,3.9082031
					c-0.535038,0.4203873-0.821537,0.2509079-1.2626953,0.3271484c-0.6220703-0.0986328-1.1474609-0.4667969-1.4980469-1.0136719
					l-8.078125-12.4609375c-0.6796875-1.0146484-0.5664063-2.3867188,0.2539063-3.0566406l1.9912109-1.5976563
					c0.256176-0.2049408,0.5714264,0.1811295,0.3125,0.390625l-1.9892578,1.5957031
					c-0.6240234,0.5097656-0.6923828,1.5839844-0.1503906,2.3935547l8.0810547,12.4648438
					c0.2744141,0.4287109,0.6767578,0.7158203,1.1044922,0.7880859l0.609375-0.0439453
					c0.0742188-0.0224609,0.1953125-0.0849609,0.3154297-0.1787109c5.0655251-3.9642792,5.0383377-4.2570343,5.3349609-4.0322266
					c2.7989502,2.124733,3.6029739,2.0482635,3.6416016,2.4130859l0.1113281,0.9794922l0.8886719,7.4619141
					c0.1152344,0.9697266,0.8642578,1.7587891,1.6699219,1.7587891c13.1752167,0.0336533,12.4840775,0.0624008,12.6904297,0.015625
					c0.6708984-0.1386719,1.0800781-0.8378906,0.9785156-1.6640625l-0.9902344-8.4443359
					c-0.0117188-0.0996094,0.0371094-0.1972656,0.125-0.2470703c1.2392578-0.7021484,2.4003906-1.5947266,3.4501953-2.6542969
					c0.0830078-0.0830078,0.2128906-0.0986328,0.3115234-0.0351563l6.0800781,3.8476563
					c0.683136,0.4332657,1.554512,0.2331848,1.8632813-0.59375l4.7363281-12.6748047
					c0.3056641-0.8427734-0.0693359-1.9189453-0.8369141-2.3964844l-6.6669922-4.2216797
					c-0.0673828-0.0419922-0.1103516-0.1142578-0.1152344-0.1943359c-0.1190948-1.7749329-0.4171982-3.5272369-0.8505859-5.1435547
					c-0.0263672-0.0957031,0.0078125-0.1982422,0.0849609-0.2597656l5.6757813-4.5341797
					c0.6132813-0.5,0.6806641-1.5800781,0.1484375-2.40625l-8.0791016-12.4414043
					c-0.5091858-0.8074989-1.1514206-0.7832222-1.2539063-0.8222656c-0.5992584-0.0454884-0.8562546,0.3499832-1.1054688,0.515625
					L75.632309,33.762886c-0.0839844,0.0683594-0.203125,0.0742188-0.2949219,0.0126953
					c-0.7089844-0.4716797-1.4511719-0.9052734-2.2070313-1.2880859c-0.0742188-0.0371094-0.125-0.1103516-0.1347656-0.1933594
					l-1-8.4628887c-0.1162109-0.9667969-0.8710938-1.7597656-1.6835938-1.7685547L58.5287933,22.021677l-1.078125,0.078125
					c-0.5605469,0.2109375-0.8857422,0.8671875-0.7939453,1.6113281l1,8.4736309
					c0.0126953,0.1015625-0.0380859,0.2001953-0.1279297,0.2490234c-0.8066406,0.4404297-1.6113281,1.0009766-2.3916016,1.6679688
					c-0.0820313,0.0693359-0.203125,0.0791016-0.2958984,0.0205078c-9.5956306-6.0104351-7.0848198-4.7175274-8.5498047-4.8222637
					c-0.3144531,0.1181641-0.5615234,0.3798828-0.6982422,0.7402344l-1.2001953,3.2207012
					c-0.1167259,0.3104935-0.5833702,0.1349411-0.46875-0.1738281l1.2011719-3.2216778
					c0.1943359-0.5146484,0.5605469-0.8867188,1.0322266-1.0488281c0.1004639-0.0334892,0.2945976-0.0263653,0.8017578-0.0625
					c0.7182541,0.0919552,0.3876305,0.1018944,7.9941406,4.8476543c0.7148438-0.5966797,1.4492188-1.1083984,2.1865234-1.5244141
					l-0.9794922-8.3066387c-0.1230469-0.9921875,0.3525391-1.8779297,1.1572266-2.1542969
					c0.5088654-0.1696224,6.6956635-0.0437584,12.9980469-0.0537109c1.0732422,0.0107422,2.0283203,0.9814453,2.1757813,2.2099609
					l0.984375,8.3300762c0.6777344,0.3486328,1.3447266,0.7363281,1.9853516,1.15625l5.9765625-4.7929668
					c0.8712997-0.7217884,2.1423721-0.2893047,2.7636719,0.6972656l8.0771484,12.4384747
					c0.6660156,1.0341797,0.5527344,2.4091797-0.2539063,3.0664063l-5.5507813,4.4345703
					c0.4075012,1.5612221,0.6902084,3.2199249,0.8164063,4.9541016l6.5576172,4.1533203
					c0.9716797,0.6035156,1.4296875,1.9179688,1.0410156,2.9921875l-4.7373047,12.6777344
					c-0.42173,1.1263657-1.647644,1.4418259-2.5996094,0.8398438l-5.9111328-3.7402344
					c-1.0029297,0.9892578-2.1025391,1.8339844-3.2724609,2.5126953l0.9707031,8.2792969
					c0.1347656,1.0888672-0.4414063,2.0205078-1.3691406,2.2128906
					C77.6805191,84.0495453,78.3587875,84.0091019,65.1733246,83.9796829z" class="color0e2365 svgShape"></path><path fill="#0e2365" d="M46.2387543 29.302927c-.1152344 0-.2167969-.0800781-.2431641-.1933594-.0917702-.3892231.6462631-.4399605 1.0361328-.3496094.2797203.0631618.2460709.474226-.0390625.4921875C46.8921967 29.2589645 46.1382904 29.3097515 46.2387543 29.302927zM52.3119965 75.347847c.0097656-.1240234.109375-.2226563.234375-.2304688.3630295.0149765.8554535-.170845.9248047.1572266.0263672.1201172-.0400391.2421875-.1552734.2861328C52.9739761 75.6922531 52.2824478 75.726059 52.3119965 75.347847zM57.3989105 22.1027317c-.2774963 0-.3477592-.3889923-.0849609-.4853516.4061584-.1458588.646946-.0780602 1.2158203-.0957031.318676 0 .3379707.4758053.0175781.4990234l-1.1308594.0810547C57.4106293 22.1027317 57.4047699 22.1027317 57.3989105 22.1027317zM75.027832 59.3750496c-4.086792 7.8785591-13.1746445 7.1074638-17.0329552-1.4998283-4.0286865-8.9971924.6012993-19.8988609 8.1964302-19.8988609C74.439537 37.9763603 79.6641617 50.5205917 75.027832 59.3750496z" class="color0e2365 svgShape"></path><path fill="#0e2365" d="M68.3980484,64.724762c-3.6707535,0.6522064-8.007328-1.5047836-10.4031715-6.8495407
				c-4.1661606-9.3042145,1.0053864-21.1431313,9.4861183-19.7937927
				c-6.979908,1.2008209-10.6117821,11.5190811-6.9068565,19.7937927
				C62.2268486,61.5627251,65.1118164,64.1897964,68.3980484,64.724762z" class="color0e2365 svgShape"></path><path fill="#fca8d7" d="M65.7907562,54.3918304c-2.3048935,5.4130478-9.7843857,7.5002136-15.2799072,5.0091629
					c-0.5352173-0.2524757-1.6663094-1.3330841-2.1712646-1.3330841c-0.4746857,0-1.1917419,0.3938789-1.6663704,0.5150604
					c-1.6663704,0.4039268-3.3932762,0.5352211-5.0798645,0.373661c3.6154861-1.0603905,7.1400528-2.494503,10.4020958-4.2819977
					c0.4544106-0.2524757,0.7169952-0.757431,0.6564026-1.2724915c-0.5958099-4.786953-2.0399704-9.4729385-4.2617798-13.7448311
					c2.4680252,0.0402565,6.3983192-0.3001366,10.9574738,1.7572327c2.6156883,1.171463,5.1909409,2.7267609,6.4634323,5.3221703
					C66.9723282,49.1201401,66.8511505,51.9377632,65.7907562,54.3918304z" class="colorfca8d7 svgShape"></path><path fill="#01b990" d="M29.0604229,46.6054802c-3.6886864,0-2.8140545,5.0694809-0.181776,7.7560844
					c1.4056358,1.4301682,2.4247608,1.1988945,2.5247688,1.2320557c0.939209-0.0605888,1.8178215-0.8382378,2.1511078-1.8885193
					C34.355999,51.2145348,32.2762413,46.6054802,29.0604229,46.6054802z M29.0604229,46.6054802
					c-3.6886864,0-2.8140545,5.0694809-0.181776,7.7560844c1.4056358,1.4301682,2.4247608,1.1988945,2.5247688,1.2320557
					c0.939209-0.0605888,1.8178215-0.8382378,2.1511078-1.8885193
					C34.355999,51.2145348,32.2762413,46.6054802,29.0604229,46.6054802z M51.5510864,47.7971649
					c-1.9711723,0.4757843-7.3083611,0.5225449-8.4630318-1.2523384c-0.6610146-1.0117798,0.3979568-2.0043678,1.4239426-2.6459503
					c1.5241852-0.9374123,3.3275604-1.1297684,5.1808319-1.4845352c-1.5653458-3.6760788-3.6659698-7.1097298-6.2815971-10.1294022
					c-0.2726936-0.3231182-0.6867905-0.4847374-1.1008263-0.4443626
					c-12.2223873,1.3151703-23.6087685,7.6929626-33.8015785,14.6942062
					c-0.7978663,0.5453262-1.1917453,1.5451241-0.9392681,2.484333C9.2561502,55.270443,11.99296,61.2289238,15.6488209,66.571312
					c0.4443607,0.6564636,1.2017918,1.0402374,1.9895496,1.0099106c2.9388046-0.1110764,6.3421879-1.2825394,8.3519554-3.1711273
					c0.4544086,1.7370758,0.8887234,3.5548935,1.2017937,5.352562c0.1110744,0.6160278,0.8886604,0.8180237,1.3027573,0.3433304
					c2.4540691-2.8984299,4.6960945-6.2108917,6.2917061-9.59412c5.9483681-0.9795799,11.9168968-2.9388046,17.2088623-5.8372345
					c0.4544106-0.2524757,0.7169952-0.757431,0.6564026-1.2724915C52.41959,51.5136185,52.045929,49.6352043,51.5510864,47.7971649z
					 M26.1216183,58.9768486c-0.9190502-1.726963-1.7976646-3.4943008-2.6460133-5.2616386
					c-0.1491947,3.363945-3.889101,5.0667763-5.2919064,3.6861229c-0.4746265-0.4544067-0.5958118-1.1411362-0.6766205-1.6460915
					l-1.0402355-5.9685898c-0.0466099-0.3036118,0.4268646-0.4454956,0.5049553-0.0808067
					c1.1213455,6.3878441,1.0602818,6.8574562,1.5654049,7.3319359c1.3507557,1.3509369,5.5331402-1.2869949,4.201189-4.9081345
					c-0.0808105-0.1918831-0.1716671-0.38377-0.2625866-0.5756531c-0.1213131-0.315506,0.3096485-0.4977455,0.4544716-0.2322617
					c0.2476692,0.4503937,1.2627983,2.9509621,3.635643,7.4126892
					C26.7332745,59.0452042,26.262537,59.2586823,26.1216183,58.9768486z M34.0392609,53.8566093
					c-0.3949013,1.2453842-1.5146255,2.2520752-2.7873554,2.2520752c-1.1310921,0-2.100563-0.7473221-2.7267628-1.3936768
					c-2.9064579-2.934433-3.5782471-8.1600151,0.0707016-8.5842133
					C32.3720322,45.6917229,34.9791565,50.8173904,34.0392609,53.8566093z M43.3203125,53.6949921
					c-1.1916809-2.4136963-2.282402-4.9081383-3.2317162-7.4329071c-0.4510345,2.2105637-2.5998802,3.1722412-3.8881187,2.292511
					c-1.1960487-0.8460045-0.9657326-2.1557426-1.4946442-8.1903992c-0.0226822-0.3171349,0.4688492-0.4039993,0.4948463-0.0403709
					c0.5018044,5.8065262,0.3406067,7.1575127,1.2926483,7.8166733c1.2087402,0.8494263,3.4943733-0.6382408,3.1206398-3.1610146
					c-0.1413994-0.3938179-0.2828026-0.7876968-0.414093-1.1815758c-0.0987892-0.2965164,0.3101196-0.4666061,0.4544678-0.201992
					c0.2322617,0.3938751,0.38377,0.8281288,0.4544716,1.2826004c1.0603905,2.9186478,2.292511,5.8069687,3.6558609,8.5943222
					C43.9123802,53.7682495,43.45401,53.9960632,43.3203125,53.6949921z M29.0604229,46.6054802
					c-3.6886864,0-2.8140545,5.0694809-0.181776,7.7560844c1.4056358,1.4301682,2.4247608,1.1988945,2.5247688,1.2320557
					c0.939209-0.0605888,1.8178215-0.8382378,2.1511078-1.8885193
					C34.355999,51.2145348,32.2762413,46.6054802,29.0604229,46.6054802z M29.0604229,46.6054802
					c-3.6886864,0-2.8140545,5.0694809-0.181776,7.7560844c1.4056358,1.4301682,2.4247608,1.1988945,2.5247688,1.2320557
					c0.939209-0.0605888,1.8178215-0.8382378,2.1511078-1.8885193
					C34.355999,51.2145348,32.2762413,46.6054802,29.0604229,46.6054802z M29.0604229,46.6054802
					c-3.6886864,0-2.8140545,5.0694809-0.181776,7.7560844c1.4056358,1.4301682,2.4247608,1.1988945,2.5247688,1.2320557
					c0.939209-0.0605888,1.8178215-0.8382378,2.1511078-1.8885193
					C34.355999,51.2145348,32.2762413,46.6054802,29.0604229,46.6054802z" class="color01b990 svgShape"></path><path fill="#0e2365" d="M34.7465668 60.2648392c5.7680893-.943779 11.7517433-2.8628159 17.1289063-5.8095703.3632813-.2021484.5761719-.6142578.5283203-1.0234375-1.0198898-8.1957092-4.4652252-15.5582199-9.1806641-20.9824219-.2197266-.2597656-.5556641-.3974609-.8886719-.359375-5.8115234.625-11.9580097 2.4824219-18.2656269 5.5205078-.2969723.1438484-.5156536-.3052711-.2167969-.4511719 6.359375-3.0625 12.5605488-4.9355469 18.4316425-5.5673809.5019531-.0498047.9951172.1494141 1.3183594.5322247 4.7694855 5.4845505 8.2631454 12.9360962 9.2978516 21.2470703.0732422.6201172-.234375 1.2167969-.7822266 1.5224609-5.3401413 2.9245567-11.3374825 4.8876038-17.2910156 5.8652344C34.4908562 60.8069496 34.4273872 60.317276 34.7465668 60.2648392zM26.9496899 69.8087845c-.3125-1.7783203-.7373047-3.5380859-1.0957031-4.9423828-1.9785156 1.671875-5.2138672 2.8476563-8.2109375 2.9599609-.8691406.03125-1.7089834-.3925781-2.2001944-1.1113281-3.6875-5.3886719-6.4160156-11.3203125-8.1103516-17.6308594-.2792969-1.0341797.1367188-2.1435547 1.0351563-2.7597656.2763653-.1858292.5537243.225544.2832031.4121094-.7236328.4960938-1.0595703 1.3876953-.8359375 2.2177734 1.6806641 6.2558594 4.3857422 12.1357422 8.0400391 17.4785156.3955069.5791016 1.0791006.9248047 1.7685537.8935547 3.0488281-.1142578 6.3447266-1.3603516 8.2001953-3.1015625.1354523-.127243.3642483-.0667419.4130859.1201172 1.4598808 5.6664429 1.0298748 5.6160126 1.5517578 5.7568359.1865234.0527344.3818359-.0078125.5117188-.1601563.2148285-.2502365.5955563.0721817.3808594.3242188C28.1338997 70.9093018 27.0936909 70.6283112 26.9496899 69.8087845z" class="color0e2365 svgShape"></path><path fill="#fca8d7" d="M74.5769653 60.1584244c-.2443466-.0245247-16.857132-1.6752586-17.0270271-1.6865273-1.2862091-.1262207-1.8272896-.4944992-1.7976646-2.1814346.0202179-2.4136963.2828026-4.8273277.7776489-7.1804314 1.0337334-1.5433846 3.0085716-4.4918633 2.8883209-4.3123245 5.4736786.5150642 10.9272079 1.0200157 16.3907776 1.53508C77.3387833 50.5381622 77.0474091 56.2977104 74.5769653 60.1584244zM44.4211388 44.3331909c.1834984-.0706444.2330399-.2921371.0908585-.4343147.7172966-.4411545 1.4450226-.6945152 2.2520752-.9088821-.0201569.0403748-.0100479.0808105.0101089.1312943.1705132.3531456.2110825.7515984.2625847 1.0906563.0251884.2265472.2133408.6871605.0808105.8786774-.0972099.1619835-.5126457.1618576-.6766205.2322578-.4746895.1413994-1.2623863.373661-1.7673378.1817741C44.09095 45.2716408 44.1253929 44.4217873 44.4211388 44.3331909z" class="colorfca8d7 svgShape"></path><path fill="#fca8d7" d="M64.2355194,52.4326057c-0.3636131,0.5958748-0.9897499,0.38377-1.5451851,0.2524757
								c-2.4397621-0.5739708-4.9333153-1.668232-6.6148834-3.5548325
								c-0.3938789-0.4242058-0.6665115-1.1411972-1.0806084-1.5148582
								c-0.7134857-0.6243706-3.2977066,0.232933-4.2011871,0.3231163
								c-2.0396614,0.2065887-6.5861206,0.3271103-7.7056007-1.3936806c-0.4948463-0.757431-0.0101089-1.5249062,0.6665115-2.100563
								c-0.0101089,0.0101089-0.0101089,0.0101089-0.0101089,0.0201569
								c-0.1719017,0.7984085,0.3052864,1.6158905,1.3835678,1.6158905c0.7346535,0,1.3301277-0.2765465,1.6562653-0.3231773
								c0.2625847-0.0504837,0.585762-0.1110764,0.757431-0.3938789c0.212101-0.3130684,0.1211815-0.6968384,0.0404358-0.9998016
								c-0.1217155-0.4864883-0.100647-0.9232025-0.343399-1.4542694c0-0.0101089-0.0101089-0.0101089-0.0202179-0.0202179
								c1.3584824-0.3103065,6.660183-1.289032,10.1697769-1.4542694
								C62.1116486,53.8627357,66.188652,49.2860069,64.2355194,52.4326057z" class="colorfca8d7 svgShape"></path><path fill="#0e2365" d="M66.1440277 53.5412064c-2.6366844-.2836151-3.1789818-.3527565-5.5693359-1.2275391-1.9463501-.7060738-4.1439857-2.0090027-5.2070313-3.765625-.1699219-.2802734-.3447266-.5703125-.5410156-.7470703-.5716782-.5058708-3.2271194.3045425-4.0078125.3867188-2.1772232.2177238-6.7452545.3288612-7.9404297-1.5058594-.7541962-1.154438.3259354-2.2573013 1.5009766-2.9951172.5845108-.3556099 1.2217026-.647068 2.3212891-.9375.7610893-.2106133 6.966259-1.3891869 10.6757813-1.5644531.3458023.002388.3407288.4842491.0234375.5-3.4067268.1601524-8.9077606 1.1692085-10.1259766 1.4482422-.7351227.1460838-1.6077042.4206619-2.2714844.7744141-.9996033.5038643-2.3203316 1.5579605-1.7050781 2.5009766 1.0448112 1.6060905 5.5679054 1.4732399 7.4707031 1.28125.2790527-.0285034.4904022-.0845528 1.1044922-.2158203 2.9646339-.6334686 3.1883163-.3986435 3.9228516.8154297.9982643 1.6531792 3.1200905 2.8907089 4.9501953 3.5546875 2.3725052.8681107 2.8756332.9175797 5.4257813 1.1992188C66.4828568 53.0762978 66.4572449 53.5412064 66.1440277 53.5412064zM20.0873852 43.9445267c3.9833984-2.3847656 8.1943359-4.4628906 12.5136738-6.1787109.3081017-.1208687.4910278.3437347.1835938.4648438-4.2939472 1.7050781-8.4794941 3.7724609-12.4414082 6.1435547C20.0573292 44.5415802 19.8051395 44.1134148 20.0873852 43.9445267z" class="color0e2365 svgShape"></path><path fill="#0e2365" d="M67.0932465 65.0939407c-.3304901 0-.3307724-.5 0-.5 3.4148026 0 6.1634674-2.3431549 7.7167969-5.3388672 4.5317993-8.6300087-.5246201-21.0244141-8.6152344-21.0244141-.1376953 0-.25-.1123047-.25-.25s.1123047-.25.25-.25c9.0421982 0 13.9822998 14.1294785 8.5927734 22.5625C72.9301605 63.3419876 70.1244965 65.0939407 67.0932465 65.0939407zM66.3608246 80.6837845c-.3143005 0-.3395844-.4655991-.0253906-.4990234l9.1923828-.9453125c.3292847-.0353546.3806229.4629593.0507813.4980469C74.4490967 79.8535461 65.8255157 80.7393723 66.3608246 80.6837845z" class="color0e2365 svgShape"></path><g><path fill="#0e2365" d="M67.5873871,76.1808548c-0.3276672-0.0115356-0.3163223-0.5,0.0078125-0.5
				c1.0645599,0,1.9608002,0.0384216,3.6103516-0.2324219c0.3371506-0.0455627,0.3991089,0.4417267,0.0800781,0.4941406
				C70.0309982,76.1476364,68.7750244,76.2198868,67.5873871,76.1808548z" class="color0e2365 svgShape"></path></g><g><path fill="#0e2365" d="M80.5307465,56.0275345c1.1972656-5.0810547-0.3398438-10.8203125-3.9160156-14.6220703
				c-0.227211-0.2412682,0.1395874-0.5841293,0.3632813-0.3417969c3.6884766,3.9199219,5.2744141,9.8388672,4.0390625,15.0791016
				C80.9404755,56.4655609,80.4539948,56.3485069,80.5307465,56.0275345z" class="color0e2365 svgShape"></path></g><g><path fill="#0e2365" d="M82.710434,44.7081985c-0.1513672-0.8779297-0.5986328-1.6894531-1.2587891-2.2851563
				c-0.2466354-0.2231407,0.0920792-0.5914993,0.3359375-0.3710938c0.7421875,0.6708984,1.2451172,1.5839844,1.4150391,2.5703125
				C83.2586823,44.9493065,82.7656021,45.0339622,82.710434,44.7081985z" class="color0e2365 svgShape"></path></g><g><path fill="#0e2365" d="M57.6909027,37.1769485c1.3935547-2.0751953,3.7128906-3.4345703,6.2041016-3.6376953
				c0.3206024-0.0417213,0.37883,0.4716949,0.0410156,0.4980469c-2.3066406,0.1884766-4.5400391,1.4980469-5.8291016,3.4189453
				C57.9198494,37.7293663,57.5081902,37.4533615,57.6909027,37.1769485z" class="color0e2365 svgShape"></path></g><g><path fill="#0e2365" d="M85.3295746,20.2052708c0.9516907-1.225975,3.8095627-4.8037577,3.4287109-6.16504
				c-0.2852859-1.019166-1.7970505-1.328331-2.7558594-0.1943359c-0.2115936,0.2534504-0.5957413-0.0709944-0.3808594-0.3232422
				c1.1904221-1.4034967,3.2140198-1.0569534,3.6191406,0.3828125c0.1894531,0.6796875-0.0800781,1.3632813-0.3681641,1.9433594
				c-0.8427734,1.6933603-2.0146484,3.203126-3.1484375,4.6630869
				C85.5238876,20.7721958,85.1253204,20.4682198,85.3295746,20.2052708z" class="color0e2365 svgShape"></path></g><g><path fill="#0e2365" d="M89.4946136,22.2023411l3.2919922-3.0175781c0.2454224-0.2220535,0.5810089,0.144722,0.3378906,0.3691406
				l-3.2919922,3.0175781C89.5898132,22.794363,89.2508163,22.4273872,89.4946136,22.2023411z" class="color0e2365 svgShape"></path></g><g><path fill="#0e2365" d="M96.4633636,24.4152317c0.4951172-0.1826172,1.0566406-0.3886719,1.4111328-0.7900391
				c0.5750504-0.6485443,0.4435883-1.6971588-1.0800781-1.4794922c-1.2392578,0.1796875-2.4453125,0.7255859-3.3964844,1.5380859
				c-0.248848,0.2159805-0.5778809-0.1647758-0.3242188-0.3808594c1.0214844-0.8720703,2.3173828-1.4589844,3.6484375-1.6513672
				c1.9745636-0.2915802,2.4023743,1.314846,1.5273438,2.3056641c-0.4384766,0.4951172-1.0625,0.7246094-1.6142578,0.9267578
				C96.3255844,25.0014362,96.1538696,24.5292549,96.4633636,24.4152317z" class="color0e2365 svgShape"></path></g><g><path fill="#0e2365" d="M34.7153168,27.334177c-0.6503906-1.8974609-1.6015625-3.6621094-2.8281269-5.2441406
					c-0.1574554-0.2018089,0.0573673-0.4799175,0.2871113-0.3867188c1.6972656,0.6494141,3.3417969,1.4521484,4.8964844,2.3876953
					c-0.1230469-1.5507813-0.0742188-3.1142578,0.1455078-4.65625c0.0341873-0.2521515,0.4021721-0.304409,0.4853516-0.0410156
					l1.4248047,4.4609375c0.8554688-1.5029297,1.9023438-2.8876953,3.1181641-4.1230469
					c0.1858826-0.1903095,0.5066299,0.009367,0.4121094,0.2636719c-0.4267578,1.1337891-0.7363281,2.3115234-0.9228516,3.5058594
					c1.7041016-0.8955078,3.6660156-1.3330078,5.5898438-1.2294922c0.2024994,0.0106583,0.3096008,0.2498322,0.1806641,0.40625
					l-3.3974609,4.2265625c-0.2055244,0.2592392-0.5976601-0.053709-0.390625-0.3125l3.0830078-3.8339844
					c-0.1010132,0.0136127-2.612114-0.1376228-5.2568359,1.421875c-0.1786728,0.1063519-0.4005165-0.039856-0.375-0.2460938
					c0.1289063-1.0146484,0.3447266-2.0185547,0.6416016-2.9980469c-0.9775391,1.1210938-1.8242188,2.3496094-2.5234375,3.6660156
					c-0.1128502,0.2095795-0.3965263,0.1564312-0.4589844-0.0410156l-1.2470703-3.9042969
					c-0.1103516,1.2919922-0.0986328,2.59375,0.0351563,3.8828125c0.0211449,0.2051029-0.2035332,0.347683-0.3818359,0.2373047
					c-1.4052734-0.8769531-2.890625-1.6435547-4.4257813-2.2822266c1.0097656,1.4384766,1.8085938,3.0078125,2.3808594,4.6777344
					C35.2955818,27.4855404,34.8214264,27.6466141,34.7153168,27.334177z" class="color0e2365 svgShape"></path><path fill="#0e2365" d="M34.625473 20.9113255l-2.1328125-2.3212891c-.2241249-.2427998.1444283-.5819798.3671875-.3378906l2.1328125 2.3212891C35.2186279 20.8182354 34.8433075 21.1509418 34.625473 20.9113255zM38.8403168 17.8478489l.4462891-1.6210938c.0868607-.3169231.5695648-.1874943.4824219.1328125l-.4462891 1.6210938C39.233326 18.2991867 38.7535057 18.166935 38.8403168 17.8478489zM45.5200043 20.5890598l1.7607422-1.1533203c.2782898-.1815968.5500984.2389526.2734375.4179688l-1.7607422 1.1533203C45.5155716 21.1879654 45.2430305 20.7682781 45.5200043 20.5890598z" class="color0e2365 svgShape"></path></g><g><path fill="#0e2365" d="M7.3334799,40.9376907c-0.8226824-1.041832-0.5842848-2.8283119,1.0625-4.0830078
				c-0.4874597-2.7102737,2.0485277-5.2538052,4.90625-4.6914063c0.3254805,0.0632248,0.2261906,0.5531616-0.0957031,0.4902344
				c-2.4046345-0.4673843-4.5581665,1.5294647-4.3486328,3.8867188c1.7706356-1.0067329,2.9945831,0.983757,1.6943359,1.703125
				c-0.7513752,0.4158096-1.6212654,0.0771751-2.0058594-0.8642578c-1.3518167,1.1697464-1.4087443,2.5032692-0.8203125,3.25
				C7.9350801,40.8927498,7.5314569,41.1950607,7.3334799,40.9376907z M8.9633627,37.059761
				c0.5088053,1.5393524,2.1387587,0.6677856,1.4726563-0.0410156C10.0410633,36.6032753,9.4448185,36.7446823,8.9633627,37.059761z
				" class="color0e2365 svgShape"></path></g></svg></g></svg>