<svg id="SvgjsSvg1013" width="256" height="256" xmlns="http://www.w3.org/2000/svg" version="1.1" xmlns:xlink="http://www.w3.org/1999/xlink" xmlns:svgjs="http://svgjs.com/svgjs"><defs></defs><g><svg xmlns="http://www.w3.org/2000/svg" viewBox="0 0 66 66" width="256" height="256"><path d="M13.494 55.684c7.461 11.514 26.651 12.552 36.898 1.987 4.816-4.967 6.954-12.019 5.576-18.402-1.446-6.707-6.948-12.25-13.378-13.479-5.462-1.045-11.284 1.214-14.682 5.333 3.047-8.158 10.501-14.777 18.535-16.033a.5.5 0 0 0 .423-.488c.054-4.188.883-8.955.091-11.312-.329-.98-.757-1.963-2.034-2.271a.492.492 0 0 0-.277.012c-10.212 3.456-25.17 8.283-31.578 20.884-4.475 8.798-4.861 25.605.426 33.769zm12.764 7.23a.25.25 0 0 0 .354 0l.949-.949 1.022 1.022-.574.574c-.018.018-.015.043-.027.064a23.825 23.825 0 0 1-2.585-.606c-.012-.027-.011-.058-.033-.08l-1.014-1.014 1.585-1.585 1.272 1.272-.949.949a.249.249 0 0 0 0 .353zm2.678.427.499.499c-.294-.034-.584-.079-.874-.124l.375-.375zm-4.512-.635c-.211-.073-.419-.152-.626-.23l.198-.198.428.428zm5.787 1.203-.921-.921 2.273-2.272 1.773 1.772-1.074 1.074a.25.25 0 1 0 .354.354l1.074-1.074 1.046 1.046c-1.691.157-3.01.148-4.525.021zm6.801-.62a.25.25 0 0 0 .354 0l1.136-1.136.699.699a.25.25 0 0 0 .354-.354l-.699-.699 2.773-2.772 1.147 1.147-1.886 1.886a.25.25 0 0 0 0 .354.24.24 0 0 0 .153.063 25.504 25.504 0 0 1-5.672 1.339l-1.328-1.328 2.398-2.398 1.71 1.71-1.136 1.136c-.1.097-.1.255-.003.353zm8.382-8.028c.019-.019.017-.046.029-.069l1.167 1.167-3.461 3.461-1.147-1.147 3.412-3.412zm-4.13 7.132 1.866-1.866.386.386a.25.25 0 1 0 .353-.354l-.386-.386 3.461-3.461.762.762a.25.25 0 0 0 .354-.354l-.762-.762 1.997-1.997c.035-.035.042-.081.052-.125l.99.99a.25.25 0 0 0 .354-.354l-2.142-2.142 2.71-2.71 1.522 1.522-1.137 1.136a.25.25 0 1 0 .354.354l1.16-1.159c.033.015.062.04.097.04.004 0 .007-.005.011-.005-2.509 4.998-6.831 8.552-12.002 10.485zM26.862 31.107l-.013-.013.025-.025c-.004.013-.007.026-.012.038zm1.227-4.697a.248.248 0 0 0-.349-.002l.574-.574.712.712c-.217.365-.429.731-.629 1.105l-.598-.598.29-.29a.25.25 0 0 0 0-.353zm3.479-5.187.805.805a27.83 27.83 0 0 0-1.003 1.165l-.765-.765a.248.248 0 0 0-.172-.071l1.135-1.134zm-.513 2.362c-.319.406-.625.822-.922 1.246-.012-.032-.013-.068-.039-.093l-.343-.343 1.057-1.057.247.247zm-1.314 1.507a.249.249 0 0 0 .163.068c-.211.311-.416.625-.614.945l-.623-.624.731-.731.343.342zm6.221-8.046.966.967c-.506.354-1.001.726-1.485 1.117l-.782-.782 1.301-1.302zm1.085-1.084.542.542-.731.732-.542-.542.731-.732zm1.527.82-.278-.278 1.219-1.22.757.756c-.556.271-1.102.564-1.641.879-.008-.049-.019-.099-.057-.137zm-.353.353c.009.009.023.006.033.014-.306.187-.613.37-.912.57l-.131-.131.731-.732.279.279zm5.983-2.587a21.55 21.55 0 0 0-1.921.617c-.005-.011-.007-.023-.014-.033l1.259-1.259.676.675zm.577-.13-.912-.912c.063-.097.066-.223-.019-.308-.085-.085-.211-.082-.308-.019l-1.043-1.043.785-.786.798.798c-.014.078-.005.158.056.219.085.085.138.071.219.056l1.363 1.363a.243.243 0 0 0 .167.069c-.003.108-.011.207-.014.316-.366.066-.728.161-1.092.247zm1.456-7.926c.013.013.032.01.047.02-.007.532-.032 1.037-.057 1.542l-.826-.827.785-.785.051.05zm-.16 4.011-.014.206-.878-.878 1.007-1.007c-.036.57-.075 1.132-.115 1.679zm-.344.583.284.284a71.142 71.142 0 0 0-.105 1.9l-1.162-1.162.955-.955c.019-.017.016-.044.028-.067zm.557-5.248-.604-.604c-.016-.016-.039-.014-.058-.024l.352-.352c.017.004.03.02.048.02a.25.25 0 0 0 .177-.073c.019-.018.016-.045.028-.067.037.362.055.73.057 1.1zm-32.332 16.53C20.128 10.24 34.571 5.497 44.82 2.028c.624.201.888.684 1.189 1.581.09.27.146.55.189.835-.011-.039-.015-.081-.046-.111-.031-.031-.072-.035-.112-.046l-.734-.735a.25.25 0 1 0-.354.354l.636.637-.366.366a.249.249 0 0 0 0 .353c.023.023.055.022.083.034-.052.095-.055.211.026.291l.501.502-.827.827c-.061.061-.07.142-.055.22a.25.25 0 0 0 .001.35l.935.935-1.057 1.057-.284-.284a.25.25 0 1 0-.354.354l.301.301c-.055.096-.058.214.024.296.102.102.195.082.296.024l.605.605c-.022.012-.049.009-.068.028l-.955.955-.758-.758.024-.024a.25.25 0 1 0-.354-.353l-.029.029a.246.246 0 0 0-.334.008.246.246 0 0 0-.008.334l-.791.791-.963-.963a.25.25 0 1 0-.354.353l.963.963-.203.203a.25.25 0 1 0 .354.354l.203-.203 1.029 1.03-1.247 1.247-2.21-2.21a.25.25 0 1 0-.354.354l2.21 2.21-.576.576c-.085.038-.173.067-.257.106l-.873-.873.484-.484a.25.25 0 1 0-.354-.353l-.484.484-.773-.773a.249.249 0 0 0-.353 0 .249.249 0 0 0 0 .353l.773.773-1.219 1.219-.772-.773a.25.25 0 0 0-.426.18l-.788.788a.246.246 0 0 0-.333.008.245.245 0 0 0-.008.333l-1.307 1.307-.284-.284a.25.25 0 0 0-.354.354l.284.284-.176.176a.25.25 0 1 0 .353.354l.176-.176.748.748c-.245.206-.491.41-.73.625l-1.007-1.008a.25.25 0 1 0-.354.354l.998.998c-.429.401-.846.814-1.25 1.243l-.791-.791.952-.952a.25.25 0 1 0-.354-.354l-2.594 2.594a.249.249 0 0 0 0 .353c.107.107.185.075.278.031-.024.084-.019.174.047.24l.203.203-1.057 1.057-.148-.149a.25.25 0 1 0-.354.354l.149.149-.908.908v.001l-.813.813a.25.25 0 0 0 .349.356l-.256.256c-.088-.032-.186-.031-.257.04-.071.071-.072.168-.04.257l-1.045 1.045a.25.25 0 1 0 .354.354l1.017-1.017.63.63c.029.029.068.032.105.043-.16.313-.328.622-.474.94l-.734-.734a.25.25 0 1 0-.354.354l.879.879c-.055.126-.106.254-.159.381l-.841.841-.338-.338a.25.25 0 1 0-.354.353l.338.338-.501.502a.25.25 0 1 0 .353.354l.501-.502.19.19a23.802 23.802 0 0 0-.765 2.778.5.5 0 0 0 .95.296c2.413-5.656 9.234-9.147 15.531-7.941 6.048 1.156 11.225 6.381 12.59 12.707.084.387.152.777.209 1.168-.007-.01-.004-.024-.013-.033l-.549-.549c-.005-.006-.003-.015-.009-.021-.006-.006-.015-.004-.021-.009L53.12 38.55a.25.25 0 1 0-.353.354l.386.386-.636.636a.25.25 0 1 0 .353.354l.636-.636.584.584-1.074 1.074a.25.25 0 1 0 .353.354l1.074-1.074.387.387a.25.25 0 0 0 .354 0c.026-.026.027-.062.039-.094.124.949.168 1.907.138 2.867-.01-.044-.017-.091-.052-.125l-1.815-1.814a.25.25 0 1 0-.353.354l1.511 1.511-1.71 1.71-.198-.198a.25.25 0 1 0-.353.354l1.755 1.755a.25.25 0 0 0 .354-.354l-1.2-1.205 1.716-1.716c.005-.005.003-.013.007-.018.095.051.181.081.29-.027.033-.033.039-.078.05-.12a19.46 19.46 0 0 1-1.408 6.522l-.821.82-1.522-1.522 1.677-1.678a.25.25 0 1 0-.354-.353l-1.677 1.677-.011-.011a.25.25 0 0 0-.354.354l.011.011-2.71 2.71-.448-.448a.25.25 0 1 0-.354.354l1.673 1.673c-.044.01-.09.017-.125.052l-1.997 1.997-1.449-1.449a.249.249 0 0 0-.353 0c-.087.087-.084.218-.016.315-.029.012-.061.012-.085.035l-3.412 3.412-1.137-1.136a.25.25 0 1 0-.353.354l1.137 1.136-2.773 2.773-1.71-1.71 3.357-3.357a.25.25 0 1 0-.354-.354l-3.357 3.357-1.074-1.074a.25.25 0 1 0-.354.354l1.074 1.074-2.398 2.398-1.773-1.772 2.259-2.259a.25.25 0 1 0-.354-.354l-2.259 2.259-1.199-1.199a.25.25 0 1 0-.354.354l1.199 1.199-2.273 2.272-1.022-1.022 1.777-1.777a.25.25 0 1 0-.354-.354l-1.777 1.777-1.272-1.272.437-.437a.25.25 0 1 0-.354-.354l-.437.437-.073-.073a.25.25 0 1 0-.354.354l.073.073-1.585 1.585-1.261-1.261a.25.25 0 1 0-.354.354l1.261 1.261-.354.354c-3.75-1.52-6.907-3.979-8.955-7.139-5.062-7.823-4.702-24.253-.37-32.773z" fill="#2898BD" class="color000 svgShape"></path><path d="M34.949 52.868c1.433 0 2.941-.423 4.426-1.426 2.642-1.783 3.905-4.342 3.559-7.208-.392-3.248-2.852-6.323-5.984-7.48-6.959-2.569-14.009 5.843-8.543 12.764 1.503 1.902 3.893 3.35 6.542 3.35zm-7.195-6.703a7.251 7.251 0 0 1-.149-.58l.341.341-.158.158c-.023.022-.022.053-.034.081zm7.385-8.817-.089.088-.107-.106c.066.007.131.01.196.018zm-2.255.156-.768.768-.408-.408c.371-.171.75-.305 1.135-.401l.041.041zm-2.779 1.372.907.906a.25.25 0 0 0 .354-.354l-.86-.859c.24-.173.484-.331.733-.469l.699.699a.25.25 0 0 0 .354 0c.008-.008.006-.021.012-.03.012-.008.027-.005.037-.015l.897-.897.54.539a.25.25 0 0 0 .354-.354l-.697-.697a6.2 6.2 0 0 1 .805-.069c.012.032.013.067.038.093l.42.42-.085.085a.25.25 0 1 0 .353.354l.085-.085.089.089a.25.25 0 1 0 .353-.353l-.089-.089.304-.304c.01-.01.007-.025.015-.036.294.066.587.135.881.243 2.795 1.032 4.989 3.771 5.338 6.661.299 2.474-.812 4.697-3.125 6.259-3.727 2.516-7.518.952-9.624-1.715a8.398 8.398 0 0 1-.399-.551l.149.149a.25.25 0 0 0 .354-.354l-.308-.308.683-.683a.25.25 0 1 0-.354-.354l-.683.683-.637-.637a7.212 7.212 0 0 1-.142-.38c.094.049.179.081.287-.028l.181-.181c.091.041.165.075.273-.033.075-.075.074-.181.033-.273l1.347-1.347a.25.25 0 1 0-.354-.354l-1.324 1.324-.826-.825a6.526 6.526 0 0 1 .043-1.541l.299.299a.246.246 0 0 0 .068.164.246.246 0 0 0 .164.068l.534.534a.25.25 0 0 0 .354-.354l-.473-.473 1.024-1.024c.018-.011.04-.008.056-.023s.013-.038.023-.056l.177-.177a.25.25 0 1 0-.353-.354l-.04.04-.92-.921c-.025-.025-.06-.025-.091-.038a6.89 6.89 0 0 1 .471-.688l.401.401-.086.086a.25.25 0 1 0 .354.354l.086-.086.301.301a.25.25 0 0 0 .354-.354l-.301-.301.73-.73a.25.25 0 1 0-.354-.354l-.73.73-.439-.439c.39-.44.64-.657.98-.934zm-1.995 2.443.885.885-.887.887-.396-.396c-.025-.025-.06-.026-.091-.038a6.26 6.26 0 0 1 .489-1.338zM12.384 39.387c.015 0 .03-.001.045-.004l.975-.177c.063 1.297.19 2.59.419 3.864a.25.25 0 1 0 .492-.088 29.607 29.607 0 0 1-.416-3.867l.602-.109a.25.25 0 1 0-.09-.492l-.544.099a30.31 30.31 0 0 1 .101-3.328l1.034.197a.248.248 0 0 0 .292-.199.249.249 0 0 0-.198-.292l-1.085-.207a30.56 30.56 0 0 1 .535-3.484l.881.477a.25.25 0 1 0 .238-.44l-1-.542c.33-1.422.761-2.816 1.293-4.172l.821.54a.25.25 0 0 0 .276-.418l-.905-.595c.11-.268.206-.542.324-.806.365-.816.781-1.61 1.22-2.391l.588.599a.25.25 0 0 0 .358-.351l-.681-.694a30.363 30.363 0 0 1 2.29-3.378l.965.976a.25.25 0 0 0 .356-.352l-1.002-1.014a30.836 30.836 0 0 1 2.544-2.791l.791.939a.25.25 0 0 0 .383-.322l-.804-.954a30.38 30.38 0 0 1 2.334-1.97l.746.987a.25.25 0 0 0 .399-.301l-.751-.994a28.82 28.82 0 0 1 1.987-1.343.25.25 0 1 0-.262-.426 29.74 29.74 0 0 0-2.027 1.37l-.836-1.106a.251.251 0 0 0-.35-.049.251.251 0 0 0-.049.351l.841 1.113a30.523 30.523 0 0 0-2.355 1.986l-.924-1.097a.25.25 0 1 0-.383.322l.937 1.112a31.197 31.197 0 0 0-2.575 2.815l-.824-.834a.25.25 0 1 0-.356.351l.862.872a30.77 30.77 0 0 0-2.299 3.367l-.66-.673a.25.25 0 0 0-.358.35l.754.768a29.91 29.91 0 0 0-1.314 2.556c-.107.239-.193.487-.294.729l-1.039-.684a.25.25 0 0 0-.276.418l1.124.74a30.476 30.476 0 0 0-1.322 4.205l-.778-.421a.25.25 0 0 0-.238.44l.897.486a31.209 31.209 0 0 0-.573 3.636l-.658-.126a.253.253 0 0 0-.292.199.249.249 0 0 0 .198.292l.709.135a30.733 30.733 0 0 0-.102 3.512l-.822.15-.035-.102a.25.25 0 0 0-.472.164l.106.303c.03.107.127.173.232.173z" fill="#9DD9EE" class="color000 svgShape"></path></svg></g></svg>