<svg id="SvgjsSvg1314" width="550" height="550" xmlns="http://www.w3.org/2000/svg" version="1.1" xmlns:xlink="http://www.w3.org/1999/xlink" xmlns:svgjs="http://svgjs.com/svgjs"><defs id="SvgjsDefs1315"></defs><g id="SvgjsG1316"><svg xmlns="http://www.w3.org/2000/svg" enable-background="new 0 0 110 110" viewBox="0 0 110 110" width="550" height="550"><path fill="#0e2365" d="M48.4575539,96.6046524c-4.5996094,2.2285156-10.0439453-0.171875-12.7138672-3.8027344
				c-0.4189453-0.5732422-0.7080078-1.0751953-0.9003906-1.5644531c-4.4179707-0.0556641-8.6972675-2.9599609-10.6914082-7.2734375
				c-3.349308-7.2530212-0.4041424-17.3054047,9.8916035-23.2841759c0.2825394-0.1690598,0.5387001,0.2647591,0.2519531,0.4316406
				c-10.0288963,5.8240471-12.9473801,15.5859489-9.6904316,22.6435509
				c1.8564453,4.0146484,5.9560547,6.8408203,10.0595722,6.9785156c-0.648056-2.2681808,0.9114075-4.1164093,2.7158203-3.6240234
				c1.6455688,0.4564133,1.6747589,2.4241943,0.3505859,3.4296875c-0.7353516,0.5410156-1.6572266,0.6630859-2.3486328,0.6933594
				c0.1757813,0.3935547,0.4238281,0.8066406,0.7646484,1.2734375c2.5341797,3.4462891,7.6748047,5.7382813,11.9775391,3.7070313
				c-0.8636818-1.0702057-1.6890602-2.3760376-1.7402344-3.7392578c-0.0835571-2.214241,1.9309883-3.7928543,3.8076172-2.4833984
				c2.07901,1.4489365,1.8225212,4.5697632-1.28125,6.3720703c6.6796341,7.4583282,18.9801369,4.7321472,20.1601524-2.5839844
				c-1.2309418-0.439621-2.6342163-1.103569-3.0878906-2.3349609c-0.2089844-0.5429688-0.1376953-1.2285156,0.1806641-1.7451172
				c0.7291946-1.1825409,2.4386978-0.9768753,3.1503906,1.0068359c0.3076172,0.8476563,0.4111328,1.7646484,0.3076172,2.7294922
				c7.3968964,2.264183,15.2018509-3.3566818,15.8105469-12.0058594c0.2568359-3.6669922-0.8535156-7.4628906-3.1259766-10.6875
				c-0.1898041-0.2661896,0.2147293-0.5608063,0.4082031-0.2871094c2.3388672,3.3173828,3.4814453,7.2275391,3.2158203,11.0097656
				C85.3052444,90.3642349,77.2788849,96.2376785,69.5513,93.9357071
				C68.2114487,101.7068787,55.3068161,104.4037247,48.4575539,96.6046524z M46.8843117,92.4542618
				c0.0472794,1.2662506,0.885601,2.5424957,1.6933594,3.5224609c2.877739-1.6162643,3.1120834-4.3339844,1.328125-5.5761719
				C48.3671761,89.3260651,46.8149986,90.6606369,46.8843117,92.4542618z M67.3071594,89.4728165
				c-0.7415466,0.0736465-1.1279144,1.0863724-0.8564453,1.7949219c0.3822479,1.0392838,1.6288452,1.6154785,2.6845703,2.0029297
				c0.0761719-0.8476563-0.0214844-1.6523438-0.2919922-2.3964844
				C68.5973282,90.1862259,68.0221481,89.3988571,67.3071594,89.4728165z M35.1899757,90.7384415
				c1.0039063-0.0234375,1.7177734-0.2148438,2.2412109-0.5996094c0.9790306-0.7428894,1.0629387-2.199707-0.1845703-2.5478516
				C35.6199112,87.143364,34.605423,89.025383,35.1899757,90.7384415z" class="color0e2365 svgShape"></path><path fill="#0e2365" d="M36.8589211 76.0577774L36.8589211 76.0577774c-.4277344-.46875-.6640625-1.1005859-.6835938-1.828125-.0322266-1.1132813.3945313-1.7792969 1.3056641-2.0341797 2.3397598-.6586456 4.2562103.5648117 4.2910156 1.53125.0097656.2900391-.1162109.5458984-.21875.7519531-.3652344.7353516-.8193359 1.6494141-1.6738281 2.1181641C38.9045105 77.1253815 37.6125374 76.8841858 36.8589211 76.0577774zM37.615757 72.676918c-.6845703.1914063-.9667969.6523438-.9404297 1.5390625.0117188.4228516.1162109 1.0263672.5527344 1.5039063v.0009766c.5986328.65625 1.6582031.8496094 2.4111328.4365234.6630859-.3623047 1.0566406-1.0751953 1.4667969-1.9013672.2214241-.450943.2929573-.7075119-.2451172-1.1103516C40.3110695 72.7316055 38.7194328 72.3678894 37.615757 72.676918zM48.4848976 80.1808243c-1.4319115.9552383-3.3292313.3890381-4.1279297-1.6357422-.2910156-.7363281-.3935547-1.5175781-.4931641-2.2734375-.0425949-.3312912.4524193-.3862534.4960938-.0644531.0947266.7255859.1933594 1.4755859.4619141 2.1542969.7802582 1.9717331 2.6329613 2.1865082 3.6601563 1.1826172.1435776-.1415253.3988457-.0612717.4228516.1503906.1901741 1.6368561 1.5653038 2.5228271 2.6982422 2.1132813 1.0067253-.3640747 1.9496422-1.9258957 2.3095703-2.9414063.3731232-1.0519943.0562325-1.6061783-1.0410156-1.5517578-.6113281.03125-1.2236328.1943359-1.7705078.4716797-1.934536.9814987-1.2406578-1.5370712-2.3320313-2.8427734-.8193359-.9746857-2.3357468-.8746414-3.0341797.1542969-.1880951.2740173-.5987167-.0077744-.4140625-.28125.889286-1.3077774 2.8025208-1.4217987 3.8310547-.1943359.6332664.7566376.7161522 1.7703171 1.0087891 2.6347656.2546959.7386322.7026787-.3398666 2.6845703-.4423828 1.4724998-.0724182 2.0256577.8451691 1.5380859 2.2197266-.4184265 1.1802139-1.4487076 2.8248825-2.6113281 3.2441406C50.4815063 82.739769 48.9103928 81.9215012 48.4848976 80.1808243z" class="color0e2365 svgShape"></path><path fill="#0e2365" d="M48.4028664 79.6437149c.4541016-1.4326172 1.1386719-2.7675781 2.0351563-3.9707031.1993828-.2658386.5981026.0359879.4003906.2988281-.8623047 1.1582031-1.5214844 2.4443359-1.9589844 3.8222656C48.7778625 80.1104126 48.3025169 79.9564285 48.4028664 79.6437149zM89.3960266 68.3995743c-.3187408.0395737-.3801498-.4691849-.0410156-.4980469 5.5275803-.4909897 10.5660934 7.2543411 12.6572266-.6269531 1.6376953-6.2158165.5234375-12.9042931-2.9794922-17.9394493-1.2245636.3876076-6.6844177-.371067-11.4384766-.0302734-2.0392151.1483917-2.4870377.5189857-2.7216797.5839844-.6953125.2841797-1.1982422.4902344-1.4433594 1.125-.1191025.3082695-.5859985.12883-.4667969-.1796875 1.3948975-3.6115608 14.0275574-1.4055595 15.9736328-1.9882813.1186752-.1186752.2980576-.0930328.3837891.0292969 3.6826172 5.1728516 4.8701172 12.0986328 3.1757813 18.5263634-.234375.8847656-.5605469 1.8984375-1.2021484 2.7041016C98.3961182 73.747139 94.0432816 68.0308609 89.3960266 68.3995743z" class="color0e2365 svgShape"></path><path fill="#558dfd" d="M81.8321381 55.3415527c-.1297531-1.3162041-.1695557-2.6324043-.0598907-3.9486046l.1196518.0199585c.4687347-.0399208.9173889-.2193947 1.30616-.488636.0889206 1.8655128 1.4035645 3.3124886 2.5327148 4.5568314C84.3484344 55.6994247 83.1837769 55.2715645 81.8321381 55.3415527zM82.5799713 60.3968811c-.2891998-1.5155754-.5484619-3.0411949-.7079086-4.5667534 1.4667282-.0554085 2.6764603.4428024 4.2377472.0797272.6621475.6635017 2.0287552 2.3904419 3.110878 4.2776718C87.3028259 60.437439 84.4225235 58.7269135 82.5799713 60.3968811z" class="color558dfd svgShape"></path><path fill="#558dfd" d="M84.683754,65.5220795v-0.0099792c-0.7008896-1.2536697-1.3799438-1.0937881-1.9443283-4.2676315
						c-0.0199661-0.0897675-0.0399246-0.1894569-0.0499039-0.2792244c1.7058487-1.8193207,4.4299469,0.0474281,6.7804413-0.3091011
						c0.7178955,1.306221,1.3162613,2.6722641,1.7749023,4.0882187c0,0.0099792,0,0.0099792,0.0099792,0.0198975
						c-1.1546783,0.6862259-2.6267548,0.5413895-3.5895996,0.4786606
						C86.9021072,65.193634,85.2935638,65.0656509,84.683754,65.5220795z" class="color558dfd svgShape"></path><path fill="#558dfd" d="M89.5098877,68.2741318c-1.2463989,0.3888931-2.6024628,0.5484009-3.8688202,0.2193985
						c0.0299454-0.3590088-0.0497818-0.7379227-0.169548-1.0868835c-0.1594543-0.4487152-0.3489685-0.9671783-0.568306-1.4358521
						c1.0927582-0.8204041,4.3044586,0.4821091,6.4812622-0.7079773
						C91.7689743,66.7493439,91.3291168,67.7087326,89.5098877,68.2741318z" class="color558dfd svgShape"></path><path fill="#0e2365" d="M89.4360657,68.0353165c1.872261-0.5880127,2.1231537-1.4992523,1.5673828-3.2138672
					c-2.7493057-8.4639206-7.8682709-9.8692284-8.0576172-13.8857384c-0.0138931-0.3265152,0.4832458-0.3609505,0.5-0.0234375
					c0.1761169,3.7655106,5.2226486,5.0935783,8.0322266,13.754879c0.6321335,1.9386978,0.2777481,3.1652756-1.8916016,3.8447266
					C89.2638474,68.611145,89.1265488,68.1323318,89.4360657,68.0353165z" class="color0e2365 svgShape"></path><path fill="#fca8d7" d="M76.4675217,71.3651733c-2.4870911-3.8480835-6.9251175-4.3526764-15.7841988-11.3471413v-0.0099792
						c-0.0698662-0.0498428-0.1397324-0.1097298-0.2094803-0.1695557c0-0.0099182-0.0099792-0.0099182-0.0099792-0.0099182
						l-0.7178955-0.5983086c-1.1276817,0.1129074-2.2654686-0.1450691-3.3602791-0.4187698
						c-3.1494484-0.7558365-2.6404381-1.9739304-2.492794-4.7761688c0.1386375-2.3545837,0.1446495-2.2292252,0.0099831-2.6324043
						c-0.0798492,0-0.1695557,0.0099792-0.249279,0.0298805c-0.9059067,0.6039391-0.1579285,1.677639-0.7877617,4.347477
						c-0.4564705,1.9124756-1.3399925,2.2361412-3.0312767,1.9543114c-2.9063568-0.5244522-6.6868286-1.6504784-7.8173637-4.3773575
						c-0.249279-0.6182098-0.3290024-1.3660469,0.0597649-1.9144478c0.9836807-1.4243927,8.7920074-2.5193176,10.4597473-2.7520523
						c0.2712898-0.0387306,0.913208-0.2678566,1.0769653-0.0498466c0.0099792,0,0.0099792,0,0.0099792,0
						c0.5461502-0.5214462,1.2119865-0.5663605,1.9642944-0.5085373c2.1895943-0.5601425,4.4213181-1.0082664,6.6906166-1.2064743
						c1.3901405-0.5951691,3.1114655-1.3822403,3.2805557-2.9614677c0.1296234-1.1666107-0.7777863-2.2534943-1.8646088-2.7021484
						c-1.0768394-0.4487152-2.3032761-0.3988724-3.4699478-0.2991829
						c-5.8363342,0.5393753-14.0540695,2.7998734-18.4455681,4.6065521
						c-0.7280083,7.6470337-5.8241959,17.1673431-10.1500969,23.3353043c1.4881821,2.6319427,3.005085,3.0959854,5.85149,4.534256
						c7.8768196,3.9514084,11.6110535,4.3677521,14.6176491,6.1123276c0.7578163,0.4487152,1.3462029,1.0170822,2.1538048,1.3660507
						c1.3067131,0.5581436,3.5027046,1.2683029,4.7561455,0.6182022c0.5285034-0.2791595,0.927494-0.8774643,0.8177071-1.4657288
						c0.9173889,0.5484009,2.1238632,0.737854,3.0711975,0.2293167c0.937233-0.5085373,1.4357872-1.8346634,0.8474045-2.7320938
						c1.2763405,1.1067886,3.5098686,0.807663,4.4472237-0.5982437c0.7478409-1.1267471,0.5185165-2.7420731-0.3888931-3.7192917
						c1.9045334,1.3461456,4.2477341,2.0640411,6.5810699,1.9942398
						C76.9987946,75.1671295,77.9591522,73.533165,76.4675217,71.3651733z M59.6562614,41.2821655
						c0.4187126-0.129631,0.7976227-0.1196518,1.2064743-0.1096687c0.1012192,0.0153351,0.2822075-0.0202827,0.368927,0.1096687
						c0.4785957,0.6581306,0.9173927,1.3461418,1.3161392,2.044075c0.1569214,0.2687378-0.2671013,0.5430984-0.4386711,0.2492828
						c-0.3590698-0.6480904-0.7677994-1.2862625-1.2064743-1.9044685c-0.2617912-0.006897-0.7191658-0.0324669-1.0969238,0.0897675
						c-1.4614487,0.45224-1.5525093,2.1738319,0,2.3033371c0.4387932,0.0298843,0.9074097-0.0897675,1.3561859-0.1994362
						c0.3197136-0.0985565,0.4418221,0.4096756,0.1195259,0.4785995c-1.0118103,0.2782784-1.2038383,0.2193947-1.5156364,0.2193947
						C57.7187347,44.4000626,57.6106606,41.9381981,59.6562614,41.2821655z" class="colorfca8d7 svgShape"></path><path fill="#fca8d7" d="M67.8167953,73.2592163c-0.2751846-0.1896973-0.5437622-0.4022827-0.8022537-0.6201706
					C67.3262024,72.7898407,67.59478,73.0024338,67.8167953,73.2592163z" class="colorfca8d7 svgShape"></path><path fill="#0e2365" d="M54.3315697 57.8642273c-.8013039.0802269-1.6527977-.1443787-2.4329071-.3489685 1.056839-.7301254 1.2842903-3.1783371 1.2563782-4.4471626-.0147476-.7806702-.0105324-1.4370499.7079124-1.744957.1951637.2927475.1533089.6169662.0299416 2.7121925C53.8098984 55.6105804 53.4990158 57.1421852 54.3315697 57.8642273zM76.558136 71.9952774c-1.589241-2.8541489-5.4197998-4.8262253-8.4765625-6.5136719-4.0294724-2.3858719-7.5705795-5.2067909-7.6328087-5.3779259-.0087891-.0009766-.0351563-.0175781-.0800781-.0390625-.5914764-.2783432-1.1631432-.4294243-1.1816406-.7919922-.0123825-.297142.4225159-.369442.4980469-.0810547.1488304.1091423.6424828.281208.8955078.4160156h-.0009766c.1000099.0600052.2344322.1174812.3115234.2568359 9.1060371 7.1620522 13.5360832 7.4625511 16.0214806 11.7412071 2.2265625-.28125 4.4628906-.8398438 7.0195313-1.7519531 1.2448044-.4682236 1.7802429-.9737778 1.3027344-2.3662109-.5285568-1.4684982-.6968918-1.8407669-1.3066406-2.6103516-.9265442-1.1733513-1.1394119-1.9277687-1.4345703-3.5888634-.6540146-3.4374123-1.4094467-7.5064049-.8388672-11.0419922.0019531-.0244141-.0078125-.0527344-.0166016-.0595703-1.2981415-1.095787-3.8493729-.6077423-5.4228516-.5976563-5.8248444-.0904083-6.967041-4.6634293-20.5654259-1.2148438-.3274612.0757561-.4388466-.403698-.1230469-.484375 13.5242653-3.4488831 15.1690636 1.1124687 20.6953087 1.1992188 1.6409531-.0143967 4.2613983-.5309296 5.7412109.7167969.1376953.1201172.2050781.3017578.1875.5029297-.5576172 3.4950752.1872635 7.4868355.8339844 10.8886719.5521774 3.1055565 1.1950073 2.9004021 1.9169922 4.192379.3242188.5966797.5908203 1.3369141.8046875 1.9316406.1513672.4423828.2128906.8427734.1835938 1.1933594-.0468674 1.0038071-.8555908 1.4577332-1.7861328 1.8085938-2.6601563.9482422-4.9775391 1.5195313-7.296875 1.7988281C76.6940765 72.132515 76.6047134 72.0783005 76.558136 71.9952774z" class="color0e2365 svgShape"></path><path fill="#0e2365" d="M74.4839172,52.9142265c-0.9565201-1.6697617-1.9193878-3.4546585-3.4355469-4.5849609
					c-0.2670364-0.1985054,0.0366745-0.5970116,0.2988281-0.4003906c3.1518173,2.3509979,3.9098511,7.2121429,7.3164063,8.9638672
					c1.0185547,0.5234375,2.1982422,0.7041016,3.3271484,0.5048828c0.313797-0.0685043,0.4210663,0.4347382,0.0859375,0.4921875
					C78.4751892,58.5241051,76.2907486,56.047802,74.4839172,52.9142265z" class="color0e2365 svgShape"></path><path fill="#c3d7f9" d="M69.3881378,48.6508751c-0.0102768,0.010273-0.8836899,0.2649078-0.8975525,0.2692413
					c-3.2608566,0.9465332-3.5319595,1.2091904-4.6464806,1.8246803c-0.6779709-0.2791634-1.2663574-0.7079163-1.9045296-1.056942
					c0.9132156-0.9587784,2.2699738-1.1009254,3.5895996-1.1566277c1.9235077-0.1166649,3.5958405,0.0398598,3.789093,0.0398598
					C69.3581924,48.5710869,69.4478989,48.5910492,69.3881378,48.6508751z" class="colorc3d7f9 svgShape"></path><path fill="#0e2365" d="M56.3247414,59.053875c-1.0021057-0.2402153-2.0968361-0.6056442-2.5654297-1.546875
						c-0.3530502-0.7354126-0.2493858-1.3039513-0.0371094-5.0117188l0.0136719-0.1845703
						c0.0582123-0.7276573-0.0532265-0.7215233-0.0712891-0.8310547c-0.0992393-0.1443443-0.031044-0.3305397,0.0996094-0.3857422
						c0.2646484-0.1142578,0.5458984-0.1474609,0.8212891-0.1689453c0.03125-0.1337891,0.0283203-0.2792969-0.0078125-0.4160156
						c-0.2041206-0.8249779-1.1824226-0.4770393-1.1210938-1.5371094c0.0029297-0.0517578,0.0068359-0.1279297-0.0019531-0.1513672
						c-0.3630447-0.292984,0.4589729-0.7493477,0.9121094-0.8691406c0.8793297-0.2310829,1.947052,0.0323105,3.6210938,0.2929688
						c2.6965714,0.4373741,3.5624924,0.9015732,4.7363281,1.6142578c1.8374901,1.1151352,2.0730858,0.8484421,3.3505821,1.3203125
						c2.8193741,1.0107193,3.5793762,4.1493759,1.8056641,5.7353516c-0.2415085,0.1114273-0.4385605,0.6783218-2.8300781,0.9697266
						C60.8805962,58.3870468,61.6534042,60.3902702,56.3247414,59.053875z M54.1948586,51.4796562
						c0.1084595,0.3746834,0.0485191,0.581356-0.0126953,1.8056641c-0.1739616,3.4926071-0.7687073,4.5538063,2.2617188,5.2832031
						c3.0445213,0.7574883,3.783905,0.4715233,5.4560547-0.2998047c0.5078125-0.2333984,1.0341797-0.4755859,1.5898438-0.6259766
						c1.3892555-0.3768883,2.9920769-0.1734848,4.0576134-1.1025391c1.4637909-1.309494,0.8659363-3.9917145-1.6435547-4.8916016
						c-0.3046875-0.1123047-0.6152344-0.1943359-0.9433594-0.2802734c-3.2517929-0.8562164-2.2115135-1.8424339-7.0390587-2.6298828
						c-1.7867279-0.201931-3.0585976-0.7142296-3.9814453-0.0371094c0.0263672,0.1064453,0.0205078,0.2128906,0.015625,0.296875
						c-0.0039063,0.0761719-0.0078125,0.1542969,0.0087891,0.1972656c0.069622,0.1747932,0.3929787,0.2859039,0.6152344,0.4511719
						c0.7291679,0.5392151,0.6113396,1.7400894,0.2070313,1.765625
						C54.5815773,51.4259453,54.3784523,51.4396172,54.1948586,51.4796562z M67.7134094,56.7277031h0.0058594H67.7134094z" class="color0e2365 svgShape"></path><path fill="#c3d7f9" d="M54.6343765,56.1409264c0.0495872,0.5659637,0.1808395,0.7558327,0.8398018,0.9534111
						c3.4771042,1.0425453,3.5119896,1.2514305,5.0246201,0.4294128c1.2388687-0.6732445,2.472683-1.3685379,3.5887108-2.2302475
						c0.2527084-0.1951218,0.5233917-0.4523125,0.496109-0.7704163c-0.0383682-0.447464-0.5245285-0.6006432-0.9296417-0.6815453
						c-0.974472-0.1946144-6.0441933-0.9215469-7.0355644-1.015892c-0.5450897-0.0518761-0.826004-0.2313423-1.4231796,0.5206375
						C54.5729065,54.12994,54.5476112,55.150589,54.6343765,56.1409264z" class="colorc3d7f9 svgShape"></path><path fill="#0e2365" d="M63.9350929,55.0948906c0.6520805-0.5007439,0.4907265-0.8445129-0.3300781-1.0078125
						c-0.5325623-0.1068649-7.3683548-1.1694908-7.6767578-1.0439453c-0.2976074,0.1245766-0.7365494,0.5784721-0.9335938,1.2255859
						c-0.0959511,0.3238297-0.5733833,0.1678314-0.4785156-0.1445313c0.1044922-0.3466797,0.2675781-0.6611328,0.4824219-0.9335938
						c0.6702423-0.8418922,1.0701714-0.6673508,1.6435547-0.6142578c0.9664993,0.0925636,6.1051941,0.8282051,7.0605469,1.0205078
						c0.2207031,0.0439453,0.4550743,0.0966797,0.6660118,0.2216797c0.2675781,0.1601563,0.4414063,0.4160156,0.4638672,0.6826172
						c0.0390625,0.4492188-0.3193359,0.7802734-0.5927734,0.9902344
						C63.9793663,55.6908417,63.6726036,55.2964439,63.9350929,55.0948906z" class="color0e2365 svgShape"></path><path fill="#c3d7f9" d="M56.0164566,49.2227516c-0.0509796-0.0134506-0.1496353-0.0021515-0.17342,0.0548019
						c-0.0383186,0.0917549,0.1458359,0.4503098,0.1896172,0.5681381c0.5927696,1.5953102,0.4743271,2.2606392,4.5309219,2.5033188
						c2.0501213,0.1226463,2.3433342,0.146347,2.465332,0.0060158c0.1097298-0.1262245,0.0388527-0.3249817-0.061718-0.458622
						c-0.3218651-0.4277039-0.8985443-0.6600075-1.0870934-1.160984c-0.3483543-0.9255943,0.5716934-0.5752792-5.8746719-1.549324" class="colorc3d7f9 svgShape"></path><path fill="#0e2365" d="M80.2485657,70.5538712c-1.6601563-3.4384766-4.1435547-6.4785156-7.1826172-8.7910118
					c-0.2636642-0.2006683,0.0403366-0.59758,0.3027344-0.3984375c3.1015625,2.3603516,5.6357422,5.4628868,7.3310547,8.9726524
					C80.842308,70.6338959,80.3946686,70.8525772,80.2485657,70.5538712z" class="color0e2365 svgShape"></path><path fill="#c3d7f9" d="M51.2668533,49.1521378c0.2835999,0.7516479,0.0114288,2.1022987-0.4269257,2.875145
							c-1.0872307,1.9168129-3.0401649,2.2306519-5.2337456,2.0503159c-2.2693443-0.1865616-2.7605286-1.0269318-2.857975-3.1074677
							c0.9950676-0.4698257,2.0544853-0.7181129,3.1265564-0.9662285c4.7433853-1.0977974,4.6124725-1.0869675,4.876152-1.0796471
							C50.9383202,48.9294624,51.2006721,48.9767303,51.2668533,49.1521378z" class="colorc3d7f9 svgShape"></path><path fill="#0e2365" d="M45.5854836 54.3263359c-.8623047-.0703125-1.7421875-.2226563-2.3388672-.8496094-.2256317-.2372627.1313133-.585186.3632813-.34375.4794922.5048828 1.2529297.6328125 2.0166016.6953125 2.0761833.174633 3.9587326-.095974 4.9960938-1.9238281.2353516-.4150391.3876953-.8691406.4521484-1.3496094.0461426-.3230019.5407944-.2629738.4960938.0664063-.0742188.5439453-.2460938 1.0585938-.5126953 1.5292969C49.9152756 54.1613808 47.8729477 54.5169563 45.5854836 54.3263359zM52.1480904 53.5602913c.0817604.0798683.2170792.1044922.3156357.0466118.2362213-.1387177.1710243-.5675011-.1091003-.6058159C52.06287 52.9611816 51.9689102 53.3852539 52.1480904 53.5602913zM49.8999367 57.5958672c.6053543-1.6055107.9005661-2.5322609-.6777344-1.7880859-1.2379341.5849571-1.4083099.2885323-2.2744141-.0839844-.5400391-.2333984-1.1992188-.2041016-1.7197266.0693359-.2933006.154995-.5255432-.2876701-.234375-.4414063 1.4480896-.7635002 2.5099297.2020645 3.0048828.2753906.8163605.1067314 1.8550797-1.0722733 2.6201172-.3720703.5719452.5099258.1175919 1.5363541-.25 2.5166016C50.2518349 58.0802536 49.7846451 57.9064445 49.8999367 57.5958672z" class="color0e2365 svgShape"></path><path fill="#0e2365" d="M50.7749367 58.0792656c-1.2512665 0-5.2438431-.8833542-7.2919922-2.4746094-1.3068733-1.0151901-2.5444717-2.9892349-1.6132813-4.3046875.3417969-.4814453.9072266-.7119141 1.4101563-.8886719l0 0c4.099575-1.4485168 8.5747681-1.8076973 9.4785156-2.0214844 1.5239487-.3723946 1.1278458.6202049 1.203125.8017578.0718193.1744194.3915405.2867889.6152344.453125.7644539.5684013.5925255 1.7412758.2070313 1.765625-2.1839828.1284676-.8993378 1.1527634-1.6738281 4.4267578C52.7871895 57.1945305 52.1698456 58.0792656 50.7749367 58.0792656zM43.4458351 50.882c-.4501953.1591797-.9111328.3447266-1.1679688.7070313-.4052734.5722656-.1523438 1.3642578-.0253906 1.6787109 1.0633316 2.6067619 4.8524132 3.7339935 7.6298828 4.2177734 1.5671387.2724304 2.3254051-.0097961 2.7412109-1.7636719.5875969-2.4847031-.0651932-3.5451317.6787109-4.3251953.3339844-.3496094.8085938-.4375 1.2841797-.4746094.0732422-.3144531-.0498047-.6845703-.3085938-.8769531-.3924294-.2911568-.8659973-.3470497-.8242188-1.0751953.0029297-.0537109.0078125-.1337891-.0019531-.1572266-.2140961-.0595512-.6009789.0873985-.8769531.1259766C49.6500702 49.3805695 46.6454659 49.7563362 43.4458351 50.882L43.4458351 50.882zM67.9634094 64.7892227c3.5625-3.3193321 8.3955078-5.3134727 13.2607422-5.4716759.3357849-.0087814.3431854.4884644.015625.5-4.7460938.1533203-9.4599609 2.0986328-12.9345703 5.3369102C68.0593033 65.3806915 67.7234421 65.012886 67.9634094 64.7892227z" class="color0e2365 svgShape"></path><g><path fill="#0e2365" d="M63.9302101,50.3946953c1.4248009-0.8945313,2.9833946-1.5175781,4.6337852-1.8525391
					c0.3251724-0.0630951,0.4227448,0.4246712,0.0996094,0.4902344c-1.5908203,0.3222656-3.09375,0.9228516-4.4677734,1.7861328
					C63.9127045,50.9937935,63.6512337,50.5690536,63.9302101,50.3946953z" class="color0e2365 svgShape"></path></g><g><path fill="#0e2365" d="M74.2302475,61.8609962c-0.1591568,0.5348206-0.7184677,0.8375511-1.2452927,0.6807747
					c-0.5348206-0.159153-0.829628-0.716053-0.6704712-1.2508736c0.1567612-0.526783,0.7080765-0.8318901,1.242897-0.6727371
					C74.0842133,60.7749367,74.3870087,61.3342133,74.2302475,61.8609962z" class="color0e2365 svgShape"></path></g><g><path fill="#0e2365" d="M72.6920319,58.0073891c-0.1591568,0.5348206-0.7184677,0.8375511-1.2453003,0.6807747
					c-0.5348206-0.159153-0.8296204-0.716053-0.6704712-1.2508736c0.1567612-0.526783,0.7080841-0.8318901,1.2429047-0.6727371
					C72.5459976,56.9213295,72.848793,57.4806061,72.6920319,58.0073891z" class="color0e2365 svgShape"></path></g><g><path fill="#0e2365" d="M93.6418304,56.0134163c-0.2131119,0.7161446-0.9620514,1.1215134-1.6674957,0.9115829
					c-0.7161484-0.2131119-1.1109009-0.9588242-0.897789-1.6749687c0.2099075-0.7053833,0.9481506-1.1139336,1.664299-0.9008217
					C93.4462891,54.5591393,93.8517456,55.308033,93.6418304,56.0134163z" class="color0e2365 svgShape"></path></g><g><path fill="#0e2365" d="M72.70755,66.3985977c1.1367188-0.8251953,2.3994141-1.4414063,3.7529297-1.8320313
					c0.3127518-0.0974503,0.459877,0.3883591,0.1386719,0.4804688c-1.296875,0.3740234-2.5078125,0.9648438-3.5986328,1.7558594
					C72.734993,66.9976196,72.4386444,66.5926819,72.70755,66.3985977z" class="color0e2365 svgShape"></path></g><g><path fill="#0e2365" d="M78.285675,66.6466446c1.4072266-0.9365234,3.0332031-1.5722656,4.703125-1.8388672
					c0.3359375-0.0413818,0.3981628,0.4415665,0.078125,0.4941406c-1.5986328,0.2548828-3.15625,0.8642578-4.5039063,1.7607422
					C78.2869949,67.2445908,78.0109177,66.82827,78.285675,66.6466446z" class="color0e2365 svgShape"></path></g><g><path fill="#0e2365" d="M55.6147804 77.6261368c-.299881-.1358795-.0967979-.5933838.2070313-.4550781 1.5458984.6992188 2.9804688 1.6132813 4.265625 2.7167969.1044922.0898438.1162109.2480469.0263672.3525391C59.7191544 80.7060852 59.219223 79.256218 55.6147804 77.6261368zM60.3696632 75.4132462c-.2704773-.1928558.0205002-.5980453.2890625-.4082031 1.1533203.8173828 2.2714844 1.6992188 3.3261719 2.6220703.1035118.0917969.114254.2490234.0234337.3535156C63.6884155 78.3381882 63.6077271 77.7071075 60.3696632 75.4132462zM67.6889954 73.5870743c-1.1259766-.9628906-2.4746094-1.6826172-3.9003868-2.0810547-.3181458-.0912323-.185791-.5689926.1347656-.4824219 1.4951134.4189453 2.9091759 1.1738281 4.0898399 2.1826172C68.265274 73.420929 67.9402771 73.801712 67.6889954 73.5870743z" class="color0e2365 svgShape"></path><path fill="#0e2365" d="M54.834507 78.0255508c.2080078-.6123047.5576172-1.1806641 1.0107422-1.6435547.2316399-.2363205.588726.1136322.3574219.3496094-.4013672.4101563-.7109375.9130859-.8955078 1.4560547C55.2007828 78.5008926 54.7270813 78.3384857 54.834507 78.0255508zM59.7046242 75.5499649c.1855469-.4492188.4384766-.8652344.7509766-1.2382813.2141228-.251358.5953407.0677032.3828125.3222656-.2792969.3330078-.5058594.7050781-.6728516 1.1074219C60.041996 76.0471878 59.576313 75.8555832 59.7046242 75.5499649zM63.0337257 71.7062149c.1396484-.4833984.3623047-.9335938.6611328-1.3388672.1953888-.2651749.5992546.0296478.4023399.296875-.2636681.3574219-.4599571.7548828-.583004 1.1806641C63.4205322 72.1627655 62.9425926 72.0240097 63.0337257 71.7062149z" class="color0e2365 svgShape"></path></g><g><path fill="#0e2365" d="M99.4809875,69.8224258c0.6923828-2.1748047,1.2529297-5.3349609-0.0107422-8.0400352
					c-1.2883987-2.7564774-4.0032349-4.3741302-6.6796875-5.7851563c-0.2272339-0.119133-0.1470261-0.4641037,0.1103516-0.4707031
					c3.4390793-0.0871201,6.1302338-3.0506325,5.8876953-6.4833984c-0.0226593-0.3195343,0.4760437-0.3798981,0.4980469-0.0351563
					c0.2311172,3.2629128-2.0261078,6.3720016-5.5292969,6.9394531c2.4975586,1.3555489,4.94133,3.0033531,6.1660156,5.6240234
					c1.3320313,2.8515587,0.7539063,6.1435509,0.0341797,8.4033165
					C99.8564224,70.2897263,99.3806305,70.1375046,99.4809875,69.8224258z" class="color0e2365 svgShape"></path></g><g><path fill="#0e2365" d="M71.9614563,57.4777031c1.0908203-1.1523438,2.4345703-2.1005859,3.8847656-2.7421875
					c0.2991409-0.1355476,0.5069427,0.3227844,0.203125,0.4570313c-1.390625,0.6152344-2.6787109,1.5244141-3.7246094,2.6289063
					C72.1015015,58.0580826,71.7330704,57.7202187,71.9614563,57.4777031z" class="color0e2365 svgShape"></path></g><g><path fill="#558dfd" d="M42.6154442,45.2307701c-1.4276047-1.7845078-3.7602234-0.9863892-12.0451317-3.669384
						c-5.6533718-1.7972412-6.1706505-2.8423233-8.1764336-3.8987617c-0.9766903-0.5127907-1.8302975-0.6685982-2.8018341,0.2792206
						c-1.5256195,1.4557533-2.4629726,3.5995789-3.5098724,5.4043579
						C9.1955519,55.2984352,3.9934916,62.3771248,11.5653248,65.232933
						c4.0106344,1.4968491-1.5624228-0.3666077,15.9737129,6.1422195c0.737978,0.2792206,1.5256195,0.5583801,2.3132591,0.4387283
						c1.0444431-0.1670761,1.7451191-1.3894806,2.413187-2.2235489c0.6979332-0.8475266,1.2961807-1.7748947,1.9243698-2.6722641
						c3.2498055-4.6461716,5.4092178-9.9897919,7.2690201-15.3057861c0.5185204-1.5055962,1.0868263-3.0212326,1.5354805-4.5468521
						C43.2038307,46.3575172,43.0242958,45.7293282,42.6154442,45.2307701z M15.4839268,62.9196167
						c-0.5883865,0.5285034-1.5156374,0.6182098-2.1836281,0.2193375c-1.5655422-0.9571953-0.618329-3.4300232,1.0668621-3.5696373
						C16.0721912,59.4297066,16.5907116,61.9324799,15.4839268,62.9196167z M21.4267063,65.9409103
						c-1.5654221-0.9572525-0.6182079-3.420166,1.0570011-3.5597153c1.7150135-0.1396103,2.2335339,2.3631668,1.116766,3.350296
						C23.0221901,66.2500153,22.0948181,66.3497009,21.4267063,65.9409103z M26.1530304,66.9978561
						c-1.6608295,2.0758362-1.610199,2.0340958-1.7649174,2.0340958c-0.2026119,0-0.3337135-0.2485962-0.1893921-0.4088516
						c0.5284996-0.6381149,1.04702-1.2862625,1.5655403-1.9343491
						C25.9601383,66.4191589,26.3677387,66.7355804,26.1530304,66.9978561z M35.7054901,44.6424446
						c0.0238609-0.3336182,0.5222664-0.2916908,0.498558,0.0399246c-0.0698662,0.8176422-0.1695518,1.6551857-0.3191452,2.4927902
						c-0.0564079,0.3380966-0.5351868,0.2228966-0.4885788-0.0797844
						C35.5359383,46.2677498,35.6356239,45.4401245,35.7054901,44.6424446z M28.805397,63.4081955
						c-0.1931591,0.2708473-0.6026783-0.0125389-0.4088535-0.2791634c2.4867725-3.6127472,2.3207436-4.0475464,2.7121296-3.8189735
						c0.119772,0.0698051,0.1596947,0.2193375,0.0898285,0.3389854
						C30.6614723,60.5789719,30.0187645,61.6373787,28.805397,63.4081955z M33.2326584,55.6805382
						c-0.122406,0.3058319-0.5961533,0.095623-0.4487762-0.1994362c0.6182098-1.3760262,1.1467094-2.7519913,1.5754013-4.1180992
						c0.0941887-0.3056793,0.5757256-0.1657791,0.4785995,0.1495934
						C34.3992081,52.8886223,33.8607254,54.294529,33.2326584,55.6805382z" class="color558dfd svgShape"></path></g><g><path fill="#0e2365" d="M36.2241554,38.5773125v-9.7070332c0-0.3304882,0.5-0.3307705,0.5,0v9.7070332
				C36.7241554,38.9078026,36.2241554,38.9080849,36.2241554,38.5773125z" class="color0e2365 svgShape"></path></g><g><path fill="#0e2365" d="M76.0171204,40.3058281v-7.5117188c0-0.3304901,0.5-0.3307724,0.5,0v7.5117188
				C76.5171204,40.6363182,76.0171204,40.6366005,76.0171204,40.3058281z" class="color0e2365 svgShape"></path></g><g><path fill="#0e2365" d="M75.4126282,13.71696V9.5734053c0-0.3304901,0.5-0.3307714,0.5,0V13.71696
				C75.9126282,14.0474501,75.4126282,14.0477314,75.4126282,13.71696z" class="color0e2365 svgShape"></path></g><g><path fill="#0e2365" d="M36.4829445,15.3361006V8.9689131c0-0.3304901,0.5-0.3307714,0.5,0v6.3671875
				C36.9829445,15.6665907,36.4829445,15.666872,36.4829445,15.3361006z" class="color0e2365 svgShape"></path></g><g><path fill="#01b990" d="M58.4298286,9.4143419c-7.8773727,0-14.2688065,6.3715315-14.2688065,14.2487803
						c0,7.89715,6.3914337,14.2687435,14.2688065,14.2687435c7.8771248,0,14.2686806-6.3715935,14.2686806-14.2687435
						C72.6985092,15.7858734,66.3069534,9.4143419,58.4298286,9.4143419z M58.4298286,31.91922
						c-4.5568962,0-8.2461777-3.6892834-8.2461777-8.2461166s3.6892815-8.2461767,8.2461777-8.2461767
						c4.5567703,0,8.2460518,3.6893454,8.2460518,8.2461767S62.986599,31.91922,58.4298286,31.91922z" class="color01b990 svgShape"></path><path fill="#0e2365" d="M72.4458313 23.6652012c0-7.7197256-6.2871094-14.0009756-14.0156212-14.0009756-.3304901 0-.3307724-.5 0-.5 8.0039024 0 14.5156212 6.5048828 14.5156212 14.5009756C72.9458313 23.9956913 72.4458313 23.9959736 72.4458313 23.6652012zM58.4302101 38.1808281c-8.0048828 0-14.5166016-6.5117207-14.5166016-14.5156269 0-.3304882.5-.3307705.5 0 0 7.7285156 6.2880859 14.0156269 14.0166016 14.0156269C58.7607002 37.6808281 58.7609787 38.1808281 58.4302101 38.1808281zM58.4302101 32.1691093c-4.6845703 0-8.4960938-3.8115253-8.4960938-8.4960957s3.8115234-8.4960928 8.4960938-8.4960928S66.9263 18.9884434 66.9263 23.6730137 63.1147804 32.1691093 58.4302101 32.1691093zM58.4302101 15.6769209c-4.4091797 0-7.9960938 3.5869131-7.9960938 7.9960928s3.5869141 7.9960938 7.9960938 7.9960938S66.4263 28.0821934 66.4263 23.6730137 62.8393898 15.6769209 58.4302101 15.6769209z" class="color0e2365 svgShape"></path><g fill="none"><path fill="#0e2365" d="M56.9477882,28.1173496c-0.8691406-1.3203125-1.9277344-2.4980469-3.1455078-3.5019531
					c-0.2537651-0.2095299,0.0598755-0.5962982,0.3183594-0.3867188c1.1240234,0.9277344,2.1162109,1.9980469,2.9550781,3.1884766
					c1.1240234-3.2636719,3.4472656-6.0947266,6.4384766-7.8212891c0.2832985-0.1652565,0.5379601,0.2660103,0.25,0.4335938
					c-3.03125,1.7490234-5.3525391,4.6738281-6.3681641,8.0224609
					C57.3345032,28.2534714,57.0659599,28.2946091,56.9477882,28.1173496z" class="color0e2365 svgShape"></path></g></g><g><path fill="#0e2365" d="M19.1098957,63.2423515c-0.0097656-1.1425781,0.8007813-2.2509766,2.0175781-2.7568359
				c0.9238281-0.3847656,2.0429688-0.4501953,3.4189453-0.1982422c0.3228188,0.0603828,0.239193,0.5474091-0.0898438,0.4921875
				c-1.2792969-0.234375-2.3056641-0.1787109-3.1376953,0.1669922c-1.0146484,0.4228516-1.7167969,1.3652344-1.7089844,2.2919922
				C19.6122608,63.5718422,19.1122513,63.5744514,19.1098957,63.2423515z" class="color0e2365 svgShape"></path></g><g><path fill="#0e2365" d="M11.044467,59.8058281c0.0508356-1.3433075,1.3475046-2.7464104,4.0068359-2.5703125
				c0.3575478,0.0226593,0.2635899,0.5607796-0.03125,0.4980469c-2.3543167-0.1556396-3.4351358,1.0151901-3.4755859,2.0917969
				C11.5324678,60.1565285,11.0327024,60.1399269,11.044467,59.8058281z" class="color0e2365 svgShape"></path></g><g><path fill="#0e2365" d="M14.3911467,33.3273125c-0.5926781-2.1477432-1.3454456-4.6605282-3.5703125-5.4873066
				c-2.0523863-0.7575169-3.9935546,0.7637253-3.5068364,2.6513672c0.1845703,0.7148438,0.7558599,1.3271484,1.4570317,1.5605488
				c0.3147364,0.1056938,0.1549873,0.5790062-0.1582031,0.4746094c-1.8708062-0.6221828-2.4847527-2.9940052-1.1474614-4.4443378
				c1.4797606-1.6073551,4.5036855-1.2813454,6.1855474,1.7539063c0.5878906,1.0615234,0.9111328,2.2294941,1.2226563,3.3584003
				C14.9605608,33.5142555,14.4810457,33.6475792,14.3911467,33.3273125z" class="color0e2365 svgShape"></path></g><g><path fill="#0e2365" d="M17.1841145,32.3673515l-1.39746-2.8271503c-0.1476507-0.2952995,0.3046198-0.5200214,0.4472647-0.2207031
				l1.3974609,2.8271503C17.7786369,32.4411583,17.3284702,32.6659012,17.1841145,32.3673515z" class="color0e2365 svgShape"></path></g><g><path fill="#0e2365" d="M20.4223957,33.0128593c-1.3144531-2.2158222-1.5273438-5.0742207-0.5546875-7.4609394
				c0.7867622-1.9316502,2.5171757-2.0681095,3.2314453,0.0097656c0.4160156,1.2099609,0.5546875,2.5214844,0.4003906,3.7929688
				c-0.04002,0.3295765-0.5356083,0.2671967-0.4960938-0.0605469c0.1445313-1.1962891,0.0146484-2.4306641-0.3769531-3.5703125
				c-1.2910252-3.7557106-4.574913,2.314827-1.7744141,7.033205C21.0205402,33.0424385,20.5922279,33.2959099,20.4223957,33.0128593
				z" class="color0e2365 svgShape"></path></g><g><path fill="#0e2365" d="M83.02005,95.6437149c5.9360962-2.5782776,9.6805038-8.582077,9.3759766-15.0537109
				c-0.0145264-0.3413925,0.4846191-0.3332443,0.5-0.0234375c0.3121338,6.6696243-3.5437241,12.8719711-9.6767578,15.5361328
				C82.9142838,96.2320862,82.7173767,95.7764282,83.02005,95.6437149z" class="color0e2365 svgShape"></path></g><g><path fill="#0e2365" d="M95.3960266,88.8985977c1.2460938-0.9736328,2.2177734-2.3310547,2.7382813-3.8222656
				c0.1082687-0.3086777,0.5814209-0.1503906,0.4726563,0.1640625c-0.5517578,1.5810547-1.5830078,3.0205078-2.9023438,4.0527344
				C95.4402008,89.4956665,95.1371689,89.1014938,95.3960266,88.8985977z" class="color0e2365 svgShape"></path></g></svg></g></svg>